<svg xmlns="http://www.w3.org/2000/svg" width="24" height="24" viewBox="0 0 24 24">
    <path style="opacity:.5;fill:none" d="M0 0h24v24H0z"/>
    <path data-name="패스 934" d="M20.75 11.75v-4c0-5-2-7-7-7h-6c-5 0-7 2-7 7v6c0 5 2 7 7 7h4" transform="translate(1 1)" style="stroke:#2e2e3a;stroke-linecap:round;stroke-linejoin:round;stroke-width:1.5px;fill:none"/>
    <path data-name="패스 935" d="m6.08 13.24 2.38-3.09a1 1 0 0 1 1.41-.18l1.83 1.44a1.011 1.011 0 0 0 1.41-.17l2.31-2.98" transform="translate(1 1)" style="stroke:#2e2e3a;stroke-linecap:round;stroke-linejoin:round;stroke-width:1.5px;fill:none"/>
    <path data-name="패스 936" d="m18.23 14.57.28.57a1.251 1.251 0 0 0 .8.6l.38.06c1.14.19 1.41 1.03.59 1.86l-.35.35a1.266 1.266 0 0 0-.29 1.02l.05.21c.31 1.38-.42 1.91-1.62 1.19l-.26-.15a1.229 1.229 0 0 0-1.12 0l-.26.15c-1.21.73-1.94.19-1.62-1.19l.05-.21a1.266 1.266 0 0 0-.29-1.02l-.35-.35c-.82-.83-.55-1.67.59-1.86l.38-.06a1.243 1.243 0 0 0 .8-.6l.28-.57c.54-1.09 1.42-1.09 1.96 0z" transform="translate(1 1)" style="stroke:#2e2e3a;stroke-linecap:round;stroke-linejoin:round;stroke-width:1.5px;fill:none"/>
</svg>
