<svg xmlns="http://www.w3.org/2000/svg" width="16" height="16" viewBox="0 0 16 16">
    <path data-name="Info Icon" d="M8 16a8 8 0 1 1 8-8 8.009 8.009 0 0 1-8 8zm-1.62-4.89a.357.357 0 0 0-.272.131.485.485 0 0 0-.113.317.421.421 0 0 0 .385.448h3.239a.453.453 0 0 0 0-.9L9 11V7a.247.247 0 0 1 .007-.068c-.016.038-.054.056-.113.056H6.38a.453.453 0 0 0 0 .9L7 8v3l-.62.11zM7 4v.941a.124.124 0 0 1-.007.027.107.107 0 0 0-.006.032.1.1 0 0 0 .007.033.118.118 0 0 1 .006.028V6h.981A.074.074 0 0 0 8 6a.063.063 0 0 0 .017 0H9v-.938a.122.122 0 0 1 .006-.028.089.089 0 0 0 0-.064A.127.127 0 0 1 9 4.94V4H7.98z" style="fill:#fff;opacity:.7"/>
</svg>
