<svg xmlns="http://www.w3.org/2000/svg" width="24" height="24" viewBox="0 0 24 24">
    <path style="fill:none" d="M0 0h24v24H0z"/>
    <path data-name="패스 30" d="M362.217 252.253c.2-1.461 10.873-9.438 8.36-8.108l-6.777 3.925c-4.011 2.436-3.72 2.048-2.871 4.948a10.336 10.336 0 0 0 .676 2.149c.472.565.606-2.874.612-2.914m-3.755-1.577c.384.151.3.1.43.545.289.981.589 1.886.883 2.859.993 3.3.87 3.32 2.284 2.17 2.333-1.9 2.116-2.084 3.455-1.139l3.86 2.815c1.1.83 1.155-.85 1.344-1.749l3.094-14.756c.069-.288.029-.464-.077-.564-.224-.209-.739-.075-1.151.092l-16.45 6.344c-4.934 1.853-.822 2.141 2.328 3.382z" transform="translate(-351.846 -237.75)" style="fill:#8b8b93;fill-rule:evenodd"/>
</svg>
