<svg xmlns="http://www.w3.org/2000/svg" width="32.2" height="32.2" viewBox="0 0 32.2 32.2">
    <path style="fill:none" d="M0 0h32.2v32.2H0z"/>
    <g data-name="tokamak1">
        <g data-name="그룹 331">
            <path data-name="패스 201" d="M43.553 89.926c-.1.316-.222.742-.3 1.065a1.6 1.6 0 0 1 .826-1.046 4.285 4.285 0 0 1 3.4-1.655v-.012c-2.441-.7-3.2.1-3.411.479a8.277 8.277 0 0 0-.512 1.169" transform="translate(-43.056 -76.651)" style="fill:#fff"/>
            <path data-name="패스 202" d="m62.9 66.466-.359.344c.413-.338 1.094-.259 2.143.249a4.561 4.561 0 0 1 .855-1.1c-.5-.363-1-.679-1.321-.53a11.372 11.372 0 0 0-1.318 1.037" transform="translate(-59.877 -56.942)" style="fill:#fff"/>
            <path data-name="패스 203" d="M96.084 49.569c-.373.137-.87.32-1.238.47a4.516 4.516 0 0 1 .518.665 12.275 12.275 0 0 1 1.732-.771c-.1-.417-.125-.625 0-.678-.3.093-.713.208-1.014.314" transform="translate(-88.041 -42.87)" style="fill:#fff"/>
            <path data-name="패스 204" d="M135.012 42.543c-.567.046-1.323.116-1.888.183-.3.074-.426.179-.572.624a21.359 21.359 0 0 1 2.332-.311 1.272 1.272 0 0 1 1.016-.539l-.885.039" transform="translate(-120.916 -36.984)" style="fill:#fff"/>
            <path data-name="패스 205" d="M178.544 43.747a58.414 58.414 0 0 0-1.771-.245 2.269 2.269 0 0 0-1.518.36 23.01 23.01 0 0 1 2.427.255 3.039 3.039 0 0 1 1.9-.166c-.313-.061-.728-.153-1.042-.2" transform="translate(-158.147 -37.847)" style="fill:#fff"/>
            <path data-name="패스 206" d="M219.42 53.386a38.64 38.64 0 0 0-1.318-.588 4.071 4.071 0 0 0-2.483-.2 15.065 15.065 0 0 1 1.9.73 4.627 4.627 0 0 1 3.1.725c-.357-.206-.831-.484-1.2-.664" transform="translate(-193.34 -45.689)" style="fill:#fff"/>
            <path data-name="패스 207" d="M250.954 72.767a9.033 9.033 0 0 0-1.089-2.143l-.281-.387a5.387 5.387 0 0 0-4.266-2.3 6.112 6.112 0 0 1 1.087 1.065c2.868.406 4.842 2.927 5.028 6.423a8.939 8.939 0 0 0-.479-2.661" transform="translate(-219.233 -59.162)" style="fill:#fff"/>
            <path data-name="패스 208" d="M254.693 100.751a12.4 12.4 0 0 0 1.554-1.189c.183-.178.429-.413.6-.6 3.577-4.145 1.951-10.126-1.889-11.21a2.927 2.927 0 0 1 .066.574v.1a2.9 2.9 0 0 1-.067.565c4.109 1.854 3.705 9.254-.654 12l.385-.239" transform="translate(-227.072 -76.435)" style="fill:#fff"/>
            <path data-name="패스 209" d="M209.168 121.242a43.016 43.016 0 0 0 1.776-.5c5.259-1.977 6.1-10.048 3.146-11.989a5.857 5.857 0 0 1-1.09 1.033c2.5 2.754-.062 10.534-4.749 11.651l.914-.195" transform="translate(-186.918 -94.746)" style="fill:#fff"/>
            <path data-name="패스 210" d="M158.939 136.3c.5 0 1.157-.012 1.653-.031 4.369-.452 7.478-8.473 6.4-10.983a14.609 14.609 0 0 1-1.9.675c-.01 3.208-4.329 10.379-7.427 10.3.383.014.893.042 1.276.043" transform="translate(-142.809 -109.161)" style="fill:#fff"/>
            <path data-name="패스 211" d="M112.333 143.854c.488.118 1.14.269 1.63.369 1.823.134 6.412-6.053 8.107-9.325a22.829 22.829 0 0 1-2.433.184c-1.323 1.284-4.814 5.324-5.5 6.12-1.767 2.052-2.423 2.441-2.663 2.406l.858.245" transform="translate(-102.539 -117.54)" style="fill:#fff"/>
            <path data-name="패스 212" d="M74.539 139.311a14.635 14.635 0 0 0 1.652.957l.047.023a28.781 28.781 0 0 1 7.8-7.567 21.673 21.673 0 0 1-2.327-.379c-4.007 1.536-8.1 6.234-7.392 6.811l.225.155" transform="translate(-70.069 -115.314)" style="fill:#fff"/>
            <path data-name="패스 213" d="M49.22 125.669c.19.255.446.594.648.836-.9-1.375 2.9-4.936 6.839-5.766a12.708 12.708 0 0 1-1.732-.821c-3.623.394-7.071 2.961-6.361 4.737.173.311.406.726.606 1.014" transform="translate(-47.65 -104.479)" style="fill:#fff"/>
            <path data-name="패스 214" d="M41.73 104.044v.174c.016.3.041.7.074 1-.1-1.953 2.868-3.215 5.591-3.126a4.745 4.745 0 0 1-.856-1.123c-2.3-.3-3.561.3-4.211.848a4.757 4.757 0 0 0-.6 2.227" transform="translate(-41.729 -87.89)" style="fill:#fff"/>
        </g>
    </g>
</svg>
