<svg xmlns="http://www.w3.org/2000/svg" width="24" height="24" viewBox="0 0 24 24">
    <path style="opacity:.5;fill:none" d="M0 0h24v24H0z"/>
    <path data-name="Base" style="fill:none" d="M0 0h24v20.571H0z" transform="translate(0 2)"/>
    <g data-name="TOS_bi">
        <path data-name="패스 225" d="m184.342 119.01-2.389 3.836h2.337l2.051-3.938-4.325-6.908h-8.011l-.919 1.591h8.065z" transform="translate(-168.065 -109.996)" style="fill:#2775ff"/>
        <path data-name="패스 226" d="m166.426 136.652 4.6.054-.935-1.768-4.441.019-4.071 6.987 4.133 7.157h1.938l-4.2-6.9z" transform="translate(-159.775 -126.529)" style="fill:#2775ff"/>
        <path data-name="패스 227" d="M204.563 124.415h-4.668l.9 1.72h4.441l4.1-6.978L205.2 112h-2.01l4.28 6.839z" transform="translate(-187.384 -109.996)" style="fill:#2775ff"/>
        <path data-name="패스 228" d="m166.379 124.989 2.075 3.924 1.1-1.765-2.252-3.827h-8.074l-4.113 7.122.9 1.56 4.071-6.987z" transform="translate(-155.115 -118.157)" style="fill:#2775ff"/>
        <path data-name="패스 229" d="m176.735 150.59 2.378-3.818-2.258-.026-2.1 3.912 4.232 6.953h8.1l.923-1.6h-8.085z" transform="translate(-169.268 -135.039)" style="fill:#2775ff"/>
        <path data-name="패스 230" d="m201.976 143.248-4.107 6.985h-6.293l-2.051-3.915-1.1 1.774 2.252 3.827h8.094l4.109-7.115z" transform="translate(-179.115 -132.518)" style="fill:#2775ff"/>
    </g>
</svg>
