<svg xmlns="http://www.w3.org/2000/svg" width="29.44" height="25.496" viewBox="0 0 29.44 25.496">
    <path data-name="패스 231" d="m59.873 20.081-2.96 4.754h2.9l2.541-4.88-5.364-8.567h-9.925l-1.139 1.972h9.994z" transform="translate(-39.705 -11.388)" style="fill:#2a72e5"/>
    <path data-name="패스 232" d="m28.93 59.375 5.7.066-1.156-2.191-5.5.023-5.044 8.66 5.118 8.867h2.4l-5.207-8.557z" transform="translate(-20.688 -49.308)" style="fill:#2a72e5"/>
    <path data-name="패스 233" d="M105.3 26.78h-5.784l1.116 2.132h5.5l5.085-8.648-5.117-8.876h-2.5l5.3 8.476z" transform="translate(-84.016 -11.388)" style="fill:#2a72e5"/>
    <path data-name="패스 234" d="m23.957 36.1 2.571 4.863 1.362-2.187-2.79-4.749h-10L10 42.854l1.116 1.933 5.044-8.659z" transform="translate(-10 -30.107)" style="fill:#2a72e5"/>
    <path data-name="패스 235" d="m51.715 85.619 2.947-4.732-2.8-.033-2.6 4.848 5.244 8.618h10.037l1.143-1.98H55.668z" transform="translate(-42.463 -68.825)" style="fill:#2a72e5"/>
    <path data-name="패스 236" d="m93.376 73.863-5.09 8.657h-7.8l-2.541-4.853-1.369 2.2 2.79 4.743H89.4l5.091-8.819z" transform="translate(-65.049 -63.044)" style="fill:#2a72e5"/>
</svg>
