<svg xmlns="http://www.w3.org/2000/svg" width="120" height="30" viewBox="0 0 120 30">
    <defs>
        <clipPath id="f49es9p9na">
            <path data-name="사각형 80" style="fill:none" d="M0 0h75.961v14.23H0z"/>
        </clipPath>
    </defs>
    <path style="fill:none" d="M0 0h120v30H0z"/>
    <path data-name="패스 225" d="m189.5 122.224-3.484 5.594h3.408l2.99-5.742L186.108 112h-11.682l-1.34 2.32h11.762z" transform="translate(-165.764 -111.996)" style="fill:#2a72e5"/>
    <path data-name="패스 226" d="m168.647 137.438 6.711.078-1.364-2.579-6.477.027-5.937 10.19 6.028 10.438h2.827l-6.128-10.068z" transform="translate(-158.947 -125.592)" style="fill:#2a72e5"/>
    <path data-name="패스 227" d="M206.7 130.107h-6.807l1.314 2.509h6.477l5.984-10.176-6.031-10.44H204.7l6.242 9.973z" transform="translate(-181.65 -111.996)" style="fill:#2a72e5"/>
    <path data-name="패스 228" d="m171.542 125.754 3.026 5.722 1.6-2.574-3.284-5.581h-11.771l-6 10.387 1.313 2.274 5.936-10.189z" transform="translate(-155.115 -118.707)" style="fill:#2a72e5"/>
    <path data-name="패스 229" d="m177.642 152.351 3.468-5.568-3.293-.038-3.062 5.7 6.172 10.14h11.813l1.346-2.33h-11.792z" transform="translate(-166.753 -132.59)" style="fill:#2a72e5"/>
    <path data-name="패스 230" d="m208.189 143.248-5.99 10.186h-9.177l-2.99-5.71-1.611 2.587 3.283 5.581h11.8l5.992-10.377z" transform="translate(-174.85 -130.517)" style="fill:#2a72e5"/>
    <g>
        <g data-name="그룹 6527" transform="translate(43.69 8)" style="clip-path:url(#f49es9p9na)">
            <path data-name="패스 1018" d="M10.3 14.23H8.442q-.487 0-.487-.465V2.678a.215.215 0 0 0-.243-.244H.465A.411.411 0 0 1 0 1.97V.465A.411.411 0 0 1 .465 0h17.813a.411.411 0 0 1 .465.465v1.5a.411.411 0 0 1-.465.465h-7.247q-.266 0-.266.244v11.091a.411.411 0 0 1-.464.465"/>
            <path data-name="패스 1019" d="M35.192 14.23H23.856a3.7 3.7 0 0 1-2.7-.929 3.575 3.575 0 0 1-.952-2.678V3.607a3.574 3.574 0 0 1 .952-2.678 3.7 3.7 0 0 1 2.7-.929h11.336a3.7 3.7 0 0 1 2.7.929 3.577 3.577 0 0 1 .952 2.678v7.015a3.577 3.577 0 0 1-.952 2.678 3.705 3.705 0 0 1-2.7.929M24.298 11.8h10.429a1.391 1.391 0 0 0 1.008-.3 1.391 1.391 0 0 0 .3-1.007V3.74a1.392 1.392 0 0 0-.3-1.007 1.391 1.391 0 0 0-1.007-.3h-10.43a1.348 1.348 0 0 0-1 .3 1.428 1.428 0 0 0-.283 1.007v6.75a1.427 1.427 0 0 0 .288 1.007 1.348 1.348 0 0 0 1 .3"/>
            <path data-name="패스 1020" d="M41.517 10.6v-.443a.411.411 0 0 1 .465-.465h1.881a.411.411 0 0 1 .465.465v.177a1.553 1.553 0 0 0 .332 1.151 1.8 1.8 0 0 0 1.217.31h9.9a1.723 1.723 0 0 0 1.206-.332 1.718 1.718 0 0 0 .343-1.239v-.56a1.11 1.11 0 0 0-.52-.985 2.461 2.461 0 0 0-1.335-.279c-.518 0-9.891.037-10.489-.088a10.781 10.781 0 0 1-1.671-.487 2.621 2.621 0 0 1-1.295-1.173 4.346 4.346 0 0 1-.52-2.246v-.777a3.571 3.571 0 0 1 .975-2.677 3.7 3.7 0 0 1 2.7-.952h11.071a3.731 3.731 0 0 1 2.722.952 3.573 3.573 0 0 1 .974 2.678v.42a.411.411 0 0 1-.465.465h-1.881a.411.411 0 0 1-.465-.465v-.133a1.592 1.592 0 0 0-.332-1.173 1.806 1.806 0 0 0-1.217-.31h-9.721a1.674 1.674 0 0 0-1.228.343 2.022 2.022 0 0 0-.321 1.339v.642c0 .693.6 1.156 1.815 1.2 1.378.044 10.581-.161 12.2.235a2.429 2.429 0 0 1 1.294 1.184 4.13 4.13 0 0 1 .52 2.18V10.6a3.574 3.574 0 0 1-.974 2.678 3.7 3.7 0 0 1-2.7.952H45.191a3.7 3.7 0 0 1-2.7-.952 3.573 3.573 0 0 1-.974-2.678"/>
            <path data-name="패스 1021" d="M66.474 14.23h-1.933a.341.341 0 0 1-.369-.31l-2.287-8.838q-.1-.339.3-.339h1.387a.334.334 0 0 1 .354.31l1.549 7.259h.059l1.549-7.259a.333.333 0 0 1 .354-.31h1.387q.369 0 .3.339l-2.287 8.838a.345.345 0 0 1-.354.31"/>
            <path data-name="패스 1022" d="M70.03 13.92v-1.4a1.787 1.787 0 0 1 .723-1.431l2.715-2.3a1.541 1.541 0 0 0 .664-1.18v-.443a.865.865 0 0 0-.214-.657 1.013 1.013 0 0 0-.7-.2h-.516a.9.9 0 0 0-.664.2.926.926 0 0 0-.192.657v.472q0 .325-.31.325h-1.254q-.31 0-.31-.325v-.5a2.363 2.363 0 0 1 .634-1.77 2.469 2.469 0 0 1 1.8-.62h1.121a2.469 2.469 0 0 1 1.8.62 2.363 2.363 0 0 1 .635 1.77v.59a2.391 2.391 0 0 1-.885 1.9l-2.774 2.361a.477.477 0 0 0-.177.354v.236h3.526a.274.274 0 0 1 .31.31v1.033a.274.274 0 0 1-.31.31h-5.31a.274.274 0 0 1-.31-.31"/>
        </g>
    </g>
</svg>
