<svg xmlns="http://www.w3.org/2000/svg" width="170.001" height="30" viewBox="0 0 170.001 30">
    <path style="fill:none" d="M0 0h170v30H0z"/>
    <path data-name="패스 215" d="M53.992 22.226h-1.859q-.487 0-.487-.465V10.677a.215.215 0 0 0-.243-.243h-7.247a.411.411 0 0 1-.464-.465v-1.5a.41.41 0 0 1 .464-.465H61.97a.411.411 0 0 1 .465.465v1.5a.411.411 0 0 1-.465.465h-7.248q-.266 0-.266.243v11.084a.411.411 0 0 1-.464.465z"/>
    <path data-name="패스 216" d="M78.882 22.226H67.546a3.7 3.7 0 0 1-2.7-.929 3.573 3.573 0 0 1-.952-2.677v-7.014a3.573 3.573 0 0 1 .952-2.677 3.7 3.7 0 0 1 2.7-.929h11.336a3.7 3.7 0 0 1 2.7.929 3.576 3.576 0 0 1 .952 2.677v7.014a3.575 3.575 0 0 1-.952 2.677 3.706 3.706 0 0 1-2.7.929zm-10.894-2.433h10.429a1.1 1.1 0 0 0 1.306-1.305V11.74a1.1 1.1 0 0 0-1.306-1.305H67.988a1.351 1.351 0 0 0-1 .3 1.427 1.427 0 0 0-.288 1.007v6.748a1.427 1.427 0 0 0 .288 1.007 1.351 1.351 0 0 0 1 .296z"/>
    <path data-name="패스 217" d="M87.491 22.226h-1.837a.411.411 0 0 1-.465-.465v-13.3a.411.411 0 0 1 .465-.465h1.66c.31 0 .337.015.64.277l13.013 9.894h.088V8.461a.411.411 0 0 1 .465-.465h1.836a.411.411 0 0 1 .465.465v13.3a.411.411 0 0 1-.465.465h-1.615c-.325 0-.394-.114-.752-.393l-12.945-9.756h-.089v9.684a.411.411 0 0 1-.464.465z"/>
    <path data-name="패스 218" d="M106.344 18.593v-.443a.411.411 0 0 1 .465-.465h1.881a.411.411 0 0 1 .465.465v.177a1.552 1.552 0 0 0 .332 1.15 1.8 1.8 0 0 0 1.217.31h9.9a1.285 1.285 0 0 0 1.549-1.571v-.56a1.11 1.11 0 0 0-.52-.985 2.464 2.464 0 0 0-1.334-.28c-.518 0-9.891.037-10.489-.088a10.778 10.778 0 0 1-1.671-.487 2.621 2.621 0 0 1-1.295-1.173 4.344 4.344 0 0 1-.52-2.246v-.774a3.571 3.571 0 0 1 .974-2.677 3.7 3.7 0 0 1 2.7-.951h11.071a3.733 3.733 0 0 1 2.722.951 3.574 3.574 0 0 1 .974 2.677v.42a.411.411 0 0 1-.465.465h-1.881a.411.411 0 0 1-.465-.465v-.133a1.592 1.592 0 0 0-.332-1.173 1.807 1.807 0 0 0-1.217-.309h-9.726a1.673 1.673 0 0 0-1.228.343 2.019 2.019 0 0 0-.321 1.339v.642c0 .694.6 1.156 1.815 1.195 1.378.044 10.58-.161 12.2.236a2.428 2.428 0 0 1 1.295 1.184 4.129 4.129 0 0 1 .52 2.18v1.046a3.573 3.573 0 0 1-.974 2.677 3.7 3.7 0 0 1-2.7.951h-11.27a3.7 3.7 0 0 1-2.7-.951 3.572 3.572 0 0 1-.972-2.677z"/>
    <path data-name="패스 219" d="M129.936 22.226h-1.24q-.324 0-.324-.31v-7.39a.144.144 0 0 0-.163-.162h-1.673a.274.274 0 0 1-.31-.31v-1a.274.274 0 0 1 .31-.31h5.577a.274.274 0 0 1 .31.31v1a.274.274 0 0 1-.31.31h-1.682q-.177 0-.177.162v7.39a.273.273 0 0 1-.318.31z"/>
    <path data-name="패스 220" d="M134.528 22.226h-1.416q-.266 0-.177-.31l2.331-8.865a.424.424 0 0 1 .443-.31h1.962a.4.4 0 0 1 .443.31l2.331 8.865q.088.31-.177.31h-1.416a.291.291 0 0 1-.221-.066.5.5 0 0 1-.088-.244l-.413-1.623h-2.878l-.413 1.623a.458.458 0 0 1-.1.244.3.3 0 0 1-.211.066zm2.139-7.7-1.062 4.263h2.184l-1.062-4.263z"/>
    <path data-name="패스 221" d="M143.323 22.226h-1.254a.274.274 0 0 1-.31-.31v-8.865a.274.274 0 0 1 .31-.31h3.512a2.468 2.468 0 0 1 1.8.634 2.381 2.381 0 0 1 .649 1.785v1.151a2.152 2.152 0 0 1-1.313 2.213v.059l1.579 3.289q.133.354-.251.354h-1.195a.911.911 0 0 1-.383-.059.436.436 0 0 1-.192-.251L144.8 18.73h-.988q-.177 0-.177.162v3.024a.274.274 0 0 1-.312.31zm.472-5h1.446a1.017 1.017 0 0 0 .694-.2.825.825 0 0 0 .221-.642v-1.151a.873.873 0 0 0-.221-.664.993.993 0 0 0-.694-.206h-1.446a.144.144 0 0 0-.163.162v2.535a.144.144 0 0 0 .162.166z"/>
    <path data-name="패스 222" d="M152.764 22.226h-1.239q-.324 0-.325-.31v-7.39a.143.143 0 0 0-.162-.162h-1.682a.274.274 0 0 1-.31-.31v-1a.274.274 0 0 1 .31-.31h5.577a.274.274 0 0 1 .31.31v1a.274.274 0 0 1-.31.31h-1.682q-.177 0-.177.162v7.39a.274.274 0 0 1-.31.31z"/>
    <path data-name="패스 223" d="M161.499 22.226h-4.825a.274.274 0 0 1-.31-.31v-8.865a.274.274 0 0 1 .31-.31h4.825q.295 0 .295.31v1q0 .31-.295.31h-3.084q-.177 0-.177.162v1.918c0 .108.059.162.177.162h2.523a.274.274 0 0 1 .31.31v1a.273.273 0 0 1-.31.309h-2.523c-.118 0-.177.054-.177.162v2.05c0 .109.059.162.177.162h3.084q.295 0 .295.31v1q0 .32-.295.32z"/>
    <path data-name="패스 224" d="M164.995 22.226h-1.254a.274.274 0 0 1-.31-.31v-8.865a.274.274 0 0 1 .31-.31h3.512a2.467 2.467 0 0 1 1.8.634 2.381 2.381 0 0 1 .65 1.785v1.151a2.153 2.153 0 0 1-1.313 2.213v.059l1.579 3.289q.133.354-.251.354h-1.195a.91.91 0 0 1-.383-.059.437.437 0 0 1-.192-.251l-1.475-3.186h-.988q-.177 0-.177.162v3.024a.274.274 0 0 1-.313.31zm.472-5h1.446a1.016 1.016 0 0 0 .694-.2.825.825 0 0 0 .221-.642v-1.151a.873.873 0 0 0-.221-.664.992.992 0 0 0-.694-.206h-1.446a.143.143 0 0 0-.162.162v2.535a.143.143 0 0 0 .162.166z"/>
    <g>
        <path data-name="패스 225" d="m189.5 122.224-3.484 5.594h3.408l2.99-5.742L186.108 112h-11.682l-1.34 2.32h11.762z" transform="translate(-165.764 -111.996)" style="fill:#2a72e5"/>
        <path data-name="패스 226" d="m168.647 137.438 6.711.078-1.364-2.579-6.477.027-5.937 10.19 6.028 10.438h2.827l-6.128-10.068z" transform="translate(-158.947 -125.592)" style="fill:#2a72e5"/>
        <path data-name="패스 227" d="M206.7 130.107h-6.807l1.314 2.509h6.477l5.984-10.176-6.031-10.44H204.7l6.242 9.973z" transform="translate(-181.65 -111.996)" style="fill:#2a72e5"/>
        <path data-name="패스 228" d="m171.542 125.754 3.026 5.722 1.6-2.574-3.284-5.581h-11.771l-6 10.387 1.313 2.274 5.936-10.189z" transform="translate(-155.115 -118.707)" style="fill:#2a72e5"/>
        <path data-name="패스 229" d="m177.642 152.351 3.468-5.568-3.293-.038-3.062 5.7 6.172 10.14h11.813l1.346-2.33h-11.792z" transform="translate(-166.753 -132.59)" style="fill:#2a72e5"/>
        <path data-name="패스 230" d="m208.189 143.248-5.99 10.186h-9.177l-2.99-5.71-1.611 2.587 3.283 5.581h11.8l5.992-10.377z" transform="translate(-174.85 -130.517)" style="fill:#2a72e5"/>
    </g>
</svg>
