<svg xmlns="http://www.w3.org/2000/svg" width="24" height="24" viewBox="0 0 24 24">
    <path style="fill:none" d="M0 0h24v24H0z"/>
    <path data-name="Twitter" d="M20 1.923a8.146 8.146 0 0 1-2.357.646A4.118 4.118 0 0 0 19.448.3a8.218 8.218 0 0 1-2.606 1 4.108 4.108 0 0 0-6.993 3.737A11.652 11.652 0 0 1 1.392.751a4.108 4.108 0 0 0 1.27 5.478A4.091 4.091 0 0 1 .8 5.715v.051a4.105 4.105 0 0 0 3.294 4.023 4.123 4.123 0 0 1-1.852.071 4.108 4.108 0 0 0 3.832 2.849 8.232 8.232 0 0 1-5.1 1.757A8.294 8.294 0 0 1 0 14.408a11.625 11.625 0 0 0 6.29 1.842A11.594 11.594 0 0 0 17.964 4.578c0-.178-.005-.355-.013-.531A8.323 8.323 0 0 0 20 1.923z" transform="translate(2 4)" style="fill:#2775ff"/>
</svg>
