<svg xmlns="http://www.w3.org/2000/svg" width="24" height="24" viewBox="0 0 24 24">
    <path style="opacity:.5;fill:none" d="M0 0h24v24H0z"/>
    <path data-name="패스 938" d="M17.114 12a1.739 1.739 0 1 1-1.739 1.739A1.74 1.74 0 0 1 17.114 12" transform="translate(.104 -.305)" style="fill:#16161e"/>
    <path data-name="패스 939" d="M3.75 6.674v13.477a1.74 1.74 0 0 0 1.739 1.739h17.39a.87.87 0 0 0 .87-.87V9.717a.87.87 0 0 0-.87-.87H5.978A2.206 2.206 0 0 1 3.75 6.75 2.174 2.174 0 0 1 5.846 4.5h14.425" transform="translate(-1.749 -1.5)" style="stroke:#16161e;stroke-linecap:round;stroke-linejoin:round;stroke-width:1.5px;fill:none"/>
</svg>
