<svg xmlns="http://www.w3.org/2000/svg" xmlns:xlink="http://www.w3.org/1999/xlink" width="265.381" height="266.232" viewBox="0 0 265.381 266.232">
  <defs>
    <linearGradient id="linear-gradient" x1="1.08" y1="0.187" x2="0.233" y2="0.239" gradientUnits="objectBoundingBox">
      <stop offset="0" stop-color="#f36784" stop-opacity="0"/>
      <stop offset="1" stop-color="#f36784"/>
    </linearGradient>
    <linearGradient id="linear-gradient-2" x1="1.08" y1="0.187" x2="0.233" y2="0.239" gradientUnits="objectBoundingBox">
      <stop offset="0" stop-color="#fcddab" stop-opacity="0"/>
      <stop offset="1" stop-color="#f57b2f"/>
    </linearGradient>
    <linearGradient id="linear-gradient-3" x1="0.1" y1="0.155" x2="0.906" y2="0.684" gradientUnits="objectBoundingBox">
      <stop offset="0" stop-color="#f9cba7"/>
      <stop offset="1" stop-color="#f9cba7" stop-opacity="0"/>
    </linearGradient>
    <filter id="타원_100" x="0" y="171.884" width="38.155" height="46.477" filterUnits="userSpaceOnUse">
      <feOffset input="SourceAlpha"/>
      <feGaussianBlur stdDeviation="0.5" result="blur"/>
      <feFlood flood-color="#fff8c1"/>
      <feComposite operator="in" in2="blur"/>
      <feComposite in="SourceGraphic"/>
    </filter>
    <filter id="타원_100-2" x="0" y="171.884" width="38.155" height="46.477" filterUnits="userSpaceOnUse">
      <feOffset input="SourceAlpha"/>
      <feGaussianBlur stdDeviation="1.5" result="blur-2"/>
      <feFlood flood-color="#fff8c1" result="color"/>
      <feComposite operator="out" in="SourceGraphic" in2="blur-2"/>
      <feComposite operator="in" in="color"/>
      <feComposite operator="in" in2="SourceGraphic"/>
    </filter>
    <filter id="타원_101" x="6.263" y="179.025" width="24.248" height="29.815" filterUnits="userSpaceOnUse">
      <feOffset input="SourceAlpha"/>
      <feGaussianBlur stdDeviation="0.5" result="blur-3"/>
      <feFlood flood-color="#fff8c1"/>
      <feComposite operator="in" in2="blur-3"/>
      <feComposite in="SourceGraphic"/>
    </filter>
  </defs>
  <g id="ws-line-10" transform="translate(1.81 0)">
    <ellipse id="Guide" cx="131.17" cy="131.17" rx="131.17" ry="131.17" transform="translate(0 0)" fill="none"/>
    <path id="패스_1040" data-name="패스 1040" d="M249.791.382c-12.333,60.274-67.516,103.587-129.136,103.587A130.521,130.521,0,0,1,1.708,26.91a.893.893,0,0,0-1.629.73,132.309,132.309,0,0,0,120.576,78.114c62.465,0,116.876-44.347,129.379-105.448.1-.482-.157-.346-.243.076" transform="translate(10.515 157.478)" opacity="0.75" fill="url(#linear-gradient)"/>
    <path id="패스_1038" data-name="패스 1038" d="M249.791.382c-12.333,60.274-67.516,103.587-129.136,103.587A130.521,130.521,0,0,1,1.708,26.91a.893.893,0,0,0-1.629.73,132.309,132.309,0,0,0,120.576,78.114c62.465,0,116.876-44.347,129.379-105.448.1-.482-.157-.346-.243.076" transform="translate(10.515 157.478)" fill="url(#linear-gradient-2)" style="mix-blend-mode: overlay;isolation: isolate"/>
    <path id="패스_1039" data-name="패스 1039" d="M.893,0A.892.892,0,0,0,.079,1.258C21.342,48.71,68.672,78.629,120.655,78.629c.493,0,.493-.345,0-.345C69.374,78.284,22.684,47.339,1.708.527A.893.893,0,0,0,.893,0" transform="translate(10.515 183.86)" opacity="0.5" fill="url(#linear-gradient-3)"/>
    <path id="패스_1050" data-name="패스 1050" d="M249.791.382c-12.333,60.274-67.516,103.587-129.136,103.587A130.521,130.521,0,0,1,1.708,26.91a.893.893,0,0,0-1.629.73,132.309,132.309,0,0,0,120.576,78.114c62.465,0,116.876-44.347,129.379-105.448.1-.482-.157-.346-.243.076" transform="translate(10.515 157.478)" opacity="0.5" fill="url(#linear-gradient)"/>
    <path id="패스_1041" data-name="패스 1041" d="M.893,0A.892.892,0,0,0,.079,1.258C21.342,48.71,68.672,78.629,120.655,78.629c.493,0,.493-.345,0-.345C69.374,78.284,22.684,47.339,1.708.527A.893.893,0,0,0,.893,0" transform="translate(10.515 183.86)" fill="rgba(255,254,221,0.75)" opacity="0.25"/>
    <path id="패스_1043" data-name="패스 1043" d="M.893,0A.892.892,0,0,0,.079,1.258C21.342,48.71,68.672,78.629,120.655,78.629c.493,0,.493-.345,0-.345C69.374,78.284,22.684,47.339,1.708.527A.893.893,0,0,0,.893,0" transform="translate(10.515 183.86)" fill="rgba(250,244,29,0.15)" opacity="0.5"/>
    <path id="패스_1044" data-name="패스 1044" d="M.893,0A.892.892,0,0,0,.079,1.258C21.342,48.71,68.672,78.629,120.655,78.629c.493,0,.493-.345,0-.345C69.374,78.284,22.684,47.339,1.708.527A.893.893,0,0,0,.893,0" transform="translate(10.515 183.86)" fill="rgba(255,253,180,0.25)" style="mix-blend-mode: overlay;isolation: isolate"/>
    <path id="패스_1048" data-name="패스 1048" d="M249.791.382c-12.333,60.274-67.516,103.587-129.136,103.587A130.521,130.521,0,0,1,1.708,26.91a.893.893,0,0,0-1.629.73,132.309,132.309,0,0,0,120.576,78.114c62.465,0,116.876-44.347,129.379-105.448.1-.482-.157-.346-.243.076" transform="translate(10.515 157.478)" fill="#f57b2f" opacity="0.1" style="mix-blend-mode: overlay;isolation: isolate"/>
    <path id="패스_1049" data-name="패스 1049" d="M.893,0A.892.892,0,0,0,.079,1.258C21.342,48.71,68.672,78.629,120.655,78.629c.493,0,.493-.345,0-.345C69.374,78.284,22.684,47.339,1.708.527A.893.893,0,0,0,.893,0" transform="translate(10.515 183.86)" fill="rgba(255,254,221,0.75)" opacity="0.25" style="mix-blend-mode: overlay;isolation: isolate"/>
    <g data-type="innerShadowGroup">
      <g transform="matrix(1, 0, 0, 1, -1.81, 0)" filter="url(#타원_100)" style="mix-blend-mode: overlay;isolation: isolate">
        <ellipse id="타원_100-3" data-name="타원 100" cx="11.306" cy="1.785" rx="11.306" ry="1.785" transform="matrix(-0.45, -0.89, 0.89, -0.45, 22.62, 206.01)" fill="#fff8c1" opacity="0.75"/>
      </g>
      <g transform="matrix(1, 0, 0, 1, -1.81, 0)" filter="url(#타원_100-2)" style="mix-blend-mode: overlay;isolation: isolate">
        <ellipse id="타원_100-4" data-name="타원 100" cx="11.306" cy="1.785" rx="11.306" ry="1.785" transform="matrix(-0.45, -0.89, 0.89, -0.45, 22.62, 206.01)" fill="#fff" opacity="0.75"/>
      </g>
    </g>
    <g transform="matrix(1, 0, 0, 1, -1.81, 0)" filter="url(#타원_101)" style="mix-blend-mode: overlay;isolation: isolate">
      <ellipse id="타원_101-2" data-name="타원 101" cx="8.331" cy="1.19" rx="8.331" ry="1.19" transform="matrix(-0.48, -0.87, 0.87, -0.48, 21.38, 201.8)" fill="#fffdeb" opacity="0.75"/>
    </g>
  </g>
</svg>
