<svg xmlns="http://www.w3.org/2000/svg" xmlns:xlink="http://www.w3.org/1999/xlink" width="223.921" height="223.552" viewBox="0 0 223.921 223.552">
  <defs>
    <linearGradient id="linear-gradient" x1="1.08" y1="0.187" x2="0.233" y2="0.239" gradientUnits="objectBoundingBox">
      <stop offset="0" stop-color="#2775ff" stop-opacity="0"/>
      <stop offset="1" stop-color="#2775ff"/>
    </linearGradient>
    <filter id="타원_100" x="0" y="142.449" width="36.007" height="42.999" filterUnits="userSpaceOnUse">
      <feOffset input="SourceAlpha"/>
      <feGaussianBlur stdDeviation="0.5" result="blur"/>
      <feFlood flood-color="#257eee"/>
      <feComposite operator="in" in2="blur"/>
    </filter>
    <filter id="타원_100-2" x="0" y="142.449" width="36.007" height="42.999" filterUnits="userSpaceOnUse">
      <feOffset input="SourceAlpha"/>
      <feGaussianBlur stdDeviation="1.5" result="blur-2"/>
      <feFlood flood-color="#257eee" result="color"/>
      <feComposite operator="out" in="SourceGraphic" in2="blur-2"/>
      <feComposite operator="in" in="color"/>
      <feComposite operator="in" in2="SourceGraphic"/>
    </filter>
    <filter id="타원_101" x="6.111" y="149.297" width="22.625" height="27.303" filterUnits="userSpaceOnUse">
      <feOffset input="SourceAlpha"/>
      <feGaussianBlur stdDeviation="0.5" result="blur-3"/>
      <feFlood flood-color="#257eee"/>
      <feComposite operator="in" in2="blur-3"/>
      <feComposite in="SourceGraphic"/>
    </filter>
    <filter id="타원_102" x="6.111" y="149.298" width="22.625" height="27.303" filterUnits="userSpaceOnUse">
      <feOffset input="SourceAlpha"/>
      <feGaussianBlur stdDeviation="0.5" result="blur-4"/>
      <feFlood flood-color="#257eee"/>
      <feComposite operator="in" in2="blur-4"/>
      <feComposite in="SourceGraphic"/>
    </filter>
  </defs>
  <g id="ws-line-04" transform="translate(3.495 0)">
    <circle id="Guide" cx="110.213" cy="110.213" r="110.213" transform="translate(0 0)" fill="none"/>
    <path id="패스_1040" data-name="패스 1040" d="M209.882.321c-10.363,50.644-56.729,87.037-108.5,87.037A109.668,109.668,0,0,1,1.435,22.611a.75.75,0,0,0-1.369.613A111.17,111.17,0,0,0,101.378,88.858,111.29,111.29,0,0,0,210.086.257c.083-.4-.132-.291-.2.064" transform="translate(8.835 132.318)" fill="#2775ff"/>
    <path id="패스_1038" data-name="패스 1038" d="M209.882.321c-10.363,50.644-56.729,87.037-108.5,87.037A109.668,109.668,0,0,1,1.435,22.611a.75.75,0,0,0-1.369.613A111.17,111.17,0,0,0,101.378,88.858,111.29,111.29,0,0,0,210.086.257c.083-.4-.132-.291-.2.064" transform="translate(8.835 132.318)" fill="url(#linear-gradient)" style="mix-blend-mode: overlay;isolation: isolate"/>
    <path id="패스_1039" data-name="패스 1039" d="M.75,0A.749.749,0,0,0,.066,1.057C17.932,40.928,57.7,66.067,101.378,66.067c.414,0,.414-.29,0-.29-43.088,0-82.318-26-99.943-65.334A.75.75,0,0,0,.75,0" transform="translate(8.835 154.485)" fill="#2775ff"/>
    <path id="패스_1041" data-name="패스 1041" d="M.75,0A.749.749,0,0,0,.066,1.057C17.932,40.928,57.7,66.067,101.378,66.067c.414,0,.414-.29,0-.29-43.088,0-82.318-26-99.943-65.334A.75.75,0,0,0,.75,0" transform="translate(8.835 154.485)" fill="rgba(39,117,255,0.75)" opacity="0.5"/>
    <path id="패스_1043" data-name="패스 1043" d="M.75,0A.749.749,0,0,0,.066,1.057C17.932,40.928,57.7,66.067,101.378,66.067c.414,0,.414-.29,0-.29-43.088,0-82.318-26-99.943-65.334A.75.75,0,0,0,.75,0" transform="translate(8.835 154.485)" fill="rgba(39,117,255,0.15)"/>
    <path id="패스_1044" data-name="패스 1044" d="M.75,0A.749.749,0,0,0,.066,1.057C17.932,40.928,57.7,66.067,101.378,66.067c.414,0,.414-.29,0-.29-43.088,0-82.318-26-99.943-65.334A.75.75,0,0,0,.75,0" transform="translate(8.835 154.485)" fill="#74c0ef" opacity="0.75" style="mix-blend-mode: overlay;isolation: isolate"/>
    <g data-type="innerShadowGroup">
      <g transform="matrix(1, 0, 0, 1, -3.49, 0)" filter="url(#타원_100)" style="mix-blend-mode: overlay;isolation: isolate">
        <ellipse id="타원_100-3" data-name="타원 100" cx="9.5" cy="1.5" rx="9.5" ry="1.5" transform="matrix(-0.45, -0.89, 0.89, -0.45, 20.98, 173.09)" fill="#fff" opacity="0.5"/>
      </g>
      <g transform="matrix(1, 0, 0, 1, -3.49, 0)" filter="url(#타원_100-2)" style="mix-blend-mode: overlay;isolation: isolate">
        <ellipse id="타원_100-4" data-name="타원 100" cx="9.5" cy="1.5" rx="9.5" ry="1.5" transform="matrix(-0.45, -0.89, 0.89, -0.45, 20.98, 173.09)" fill="#fff" opacity="0.5"/>
      </g>
    </g>
    <g transform="matrix(1, 0, 0, 1, -3.49, 0)" filter="url(#타원_101)" style="mix-blend-mode: overlay;isolation: isolate">
      <ellipse id="타원_101-2" data-name="타원 101" cx="7" cy="1" rx="7" ry="1" transform="matrix(-0.48, -0.87, 0.87, -0.48, 19.94, 169.56)" fill="#e0feff" opacity="0.5"/>
    </g>
    <g transform="matrix(1, 0, 0, 1, -3.49, 0)" filter="url(#타원_102)" style="mix-blend-mode: overlay;isolation: isolate">
      <ellipse id="타원_102-2" data-name="타원 102" cx="7" cy="1" rx="7" ry="1" transform="matrix(-0.48, -0.87, 0.87, -0.48, 19.94, 169.56)" fill="#e0feff" opacity="0.5"/>
    </g>
  </g>
</svg>
