<svg xmlns="http://www.w3.org/2000/svg" xmlns:xlink="http://www.w3.org/1999/xlink" width="496.107" height="500.795" viewBox="0 0 496.107 500.795">
  <defs>
    <linearGradient id="linear-gradient" x1="1.08" y1="0.813" x2="0.233" y2="0.761" gradientUnits="objectBoundingBox">
      <stop offset="0" stop-color="#f36784" stop-opacity="0"/>
      <stop offset="1" stop-color="#f36784"/>
    </linearGradient>
    <linearGradient id="linear-gradient-2" x1="1.08" y1="0.813" x2="0.233" y2="0.761" gradientUnits="objectBoundingBox">
      <stop offset="0" stop-color="#fcddab" stop-opacity="0"/>
      <stop offset="1" stop-color="#f57b2f"/>
    </linearGradient>
    <linearGradient id="linear-gradient-3" x1="0.1" y1="0.845" x2="0.906" y2="0.316" gradientUnits="objectBoundingBox">
      <stop offset="0" stop-color="#f9cba7"/>
      <stop offset="1" stop-color="#f9cba7" stop-opacity="0"/>
    </linearGradient>
    <filter id="타원_100" x="7.585" y="98.863" width="50.138" height="65.875" filterUnits="userSpaceOnUse">
      <feOffset input="SourceAlpha"/>
      <feGaussianBlur stdDeviation="0.5" result="blur"/>
      <feFlood flood-color="#fff8c1"/>
      <feComposite operator="in" in2="blur"/>
      <feComposite in="SourceGraphic"/>
    </filter>
    <filter id="타원_100-2" x="7.585" y="98.863" width="50.138" height="65.875" filterUnits="userSpaceOnUse">
      <feOffset input="SourceAlpha"/>
      <feGaussianBlur stdDeviation="1.5" result="blur-2"/>
      <feFlood flood-color="#fff8c1" result="color"/>
      <feComposite operator="out" in="SourceGraphic" in2="blur-2"/>
      <feComposite operator="in" in="color"/>
      <feComposite operator="in" in2="SourceGraphic"/>
    </filter>
    <filter id="타원_101" x="14.697" y="112.136" width="33.301" height="43.829" filterUnits="userSpaceOnUse">
      <feOffset input="SourceAlpha"/>
      <feGaussianBlur stdDeviation="0.5" result="blur-3"/>
      <feFlood flood-color="#fff8c1"/>
      <feComposite operator="in" in2="blur-3"/>
      <feComposite in="SourceGraphic"/>
    </filter>
  </defs>
  <g id="wb-line-10" transform="translate(0 3)">
    <circle id="Guide" cx="248.054" cy="248.054" r="248.054" transform="translate(0 1.688)" fill="none"/>
    <path id="패스_1040" data-name="패스 1040" d="M472.376,199.268C449.052,85.285,344.7,3.376,228.169,3.376A246.826,246.826,0,0,0,3.23,149.1a1.688,1.688,0,0,1-3.081-1.38A250.209,250.209,0,0,1,228.169,0C346.3,0,449.192,83.865,472.835,199.412c.187.912-.3.655-.459-.144" transform="translate(19.885 0)" opacity="0.75" fill="url(#linear-gradient)"/>
    <path id="패스_1038" data-name="패스 1038" d="M472.376,199.268C449.052,85.285,344.7,3.376,228.169,3.376A246.826,246.826,0,0,0,3.23,149.1a1.688,1.688,0,0,1-3.081-1.38A250.209,250.209,0,0,1,228.169,0C346.3,0,449.192,83.865,472.835,199.412c.187.912-.3.655-.459-.144" transform="translate(19.885 0)" fill="url(#linear-gradient-2)" style="mix-blend-mode: overlay;isolation: isolate"/>
    <path id="패스_1039" data-name="패스 1039" d="M1.688,148.7a1.687,1.687,0,0,1-1.539-2.379C40.359,56.58,129.864,0,228.169,0c.932,0,.932.653,0,.653C131.192.653,42.9,59.172,3.23,147.7a1.689,1.689,0,0,1-1.542,1" transform="translate(19.885 1.404)" opacity="0.5" fill="url(#linear-gradient-3)"/>
    <path id="패스_1050" data-name="패스 1050" d="M472.376,199.268C449.052,85.285,344.7,3.376,228.169,3.376A246.826,246.826,0,0,0,3.23,149.1a1.688,1.688,0,0,1-3.081-1.38A250.209,250.209,0,0,1,228.169,0C346.3,0,449.192,83.865,472.835,199.412c.187.912-.3.655-.459-.144" transform="translate(19.884 0)" opacity="0.55" fill="url(#linear-gradient)"/>
    <path id="패스_1041" data-name="패스 1041" d="M1.688,148.7a1.687,1.687,0,0,1-1.539-2.379C40.359,56.58,129.864,0,228.169,0c.932,0,.932.653,0,.653C131.192.653,42.9,59.172,3.23,147.7a1.689,1.689,0,0,1-1.542,1" transform="translate(19.885 1.404)" fill="rgba(255,254,221,0.75)" opacity="0.25"/>
    <path id="패스_1043" data-name="패스 1043" d="M1.688,148.7a1.687,1.687,0,0,1-1.539-2.379C40.359,56.58,129.864,0,228.169,0c.932,0,.932.653,0,.653C131.192.653,42.9,59.172,3.23,147.7a1.689,1.689,0,0,1-1.542,1" transform="translate(19.885 1.404)" fill="rgba(250,244,29,0.15)" opacity="0.5"/>
    <path id="패스_1044" data-name="패스 1044" d="M1.688,148.7a1.687,1.687,0,0,1-1.539-2.379C40.359,56.58,129.864,0,228.169,0c.932,0,.932.653,0,.653C131.192.653,42.9,59.172,3.23,147.7a1.689,1.689,0,0,1-1.542,1" transform="translate(19.885 1.404)" fill="rgba(255,253,180,0.25)" style="mix-blend-mode: overlay;isolation: isolate"/>
    <path id="패스_1048" data-name="패스 1048" d="M472.376,199.268C449.052,85.285,344.7,3.376,228.169,3.376A246.826,246.826,0,0,0,3.23,149.1a1.688,1.688,0,0,1-3.081-1.38A250.209,250.209,0,0,1,228.169,0C346.3,0,449.192,83.865,472.835,199.412c.187.912-.3.655-.459-.144" transform="translate(19.885 0)" fill="#f57b2f" opacity="0.1" style="mix-blend-mode: overlay;isolation: isolate"/>
    <path id="패스_1049" data-name="패스 1049" d="M1.688,148.7a1.687,1.687,0,0,1-1.539-2.379C40.359,56.58,129.864,0,228.169,0c.932,0,.932.653,0,.653C131.192.653,42.9,59.172,3.23,147.7a1.689,1.689,0,0,1-1.542,1" transform="translate(19.885 1.404)" fill="rgba(255,254,221,0.75)" opacity="0.25" style="mix-blend-mode: overlay;isolation: isolate"/>
    <g data-type="innerShadowGroup">
      <g transform="matrix(1, 0, 0, 1, 0, -3)" filter="url(#타원_100)" style="mix-blend-mode: overlay;isolation: isolate">
        <ellipse id="타원_100-3" data-name="타원 100" cx="21.381" cy="3.376" rx="21.381" ry="3.376" transform="translate(45.37 114.28) rotate(117)" fill="#fff8c1" opacity="0.75"/>
      </g>
      <g transform="matrix(1, 0, 0, 1, 0, -3)" filter="url(#타원_100-2)" style="mix-blend-mode: overlay;isolation: isolate">
        <ellipse id="타원_100-4" data-name="타원 100" cx="21.381" cy="3.376" rx="21.381" ry="3.376" transform="translate(45.37 114.28) rotate(117)" fill="#fff" opacity="0.75"/>
      </g>
    </g>
    <g transform="matrix(1, 0, 0, 1, 0, -3)" filter="url(#타원_101)" style="mix-blend-mode: overlay;isolation: isolate">
      <ellipse id="타원_101-2" data-name="타원 101" cx="15.755" cy="2.251" rx="15.755" ry="2.251" transform="translate(40.95 121.36) rotate(119)" fill="#fffdeb" opacity="0.75"/>
    </g>
  </g>
</svg>
