<svg xmlns="http://www.w3.org/2000/svg" xmlns:xlink="http://www.w3.org/1999/xlink" width="912.912" height="925.07" viewBox="0 0 912.912 925.07">
  <defs>
    <linearGradient id="linear-gradient" x1="0.117" y1="0.402" x2="0.015" y2="0.719" gradientUnits="objectBoundingBox">
      <stop offset="0" stop-color="#f36784" stop-opacity="0"/>
      <stop offset="0.028" stop-color="#f36784" stop-opacity="0.008"/>
      <stop offset="1" stop-color="#f36784"/>
    </linearGradient>
    <filter id="패스_1040" x="27.476" y="2.925" width="885.435" height="384.858" filterUnits="userSpaceOnUse">
      <feOffset input="SourceAlpha"/>
      <feGaussianBlur stdDeviation="2" result="blur"/>
      <feFlood flood-color="#f4486b"/>
      <feComposite operator="in" in2="blur"/>
      <feComposite in="SourceGraphic"/>
    </filter>
    <linearGradient id="linear-gradient-2" x1="0.964" y1="0.133" x2="0.816" y2="0.579" gradientUnits="objectBoundingBox">
      <stop offset="0" stop-color="#f57b2f"/>
      <stop offset="1" stop-color="#f57b2f" stop-opacity="0"/>
    </linearGradient>
    <filter id="패스_1055" x="15.588" y="0" width="790.093" height="324.051" filterUnits="userSpaceOnUse">
      <feOffset input="SourceAlpha"/>
      <feGaussianBlur stdDeviation="0.5" result="blur-2"/>
      <feFlood flood-color="#f57b2f" flood-opacity="0.502"/>
      <feComposite operator="in" in2="blur-2"/>
      <feComposite in="SourceGraphic"/>
    </filter>
    <linearGradient id="linear-gradient-3" x1="0.949" y1="0.192" x2="0.795" y2="0.668" gradientUnits="objectBoundingBox">
      <stop offset="0" stop-color="#fffedd"/>
      <stop offset="1" stop-color="#fffedd" stop-opacity="0"/>
    </linearGradient>
    <filter id="패스_1056" x="15.588" y="0" width="790.093" height="324.051" filterUnits="userSpaceOnUse">
      <feOffset input="SourceAlpha"/>
      <feGaussianBlur stdDeviation="0.5" result="blur-3"/>
      <feFlood flood-color="#fffedd" flood-opacity="0.502"/>
      <feComposite operator="in" in2="blur-3"/>
      <feComposite in="SourceGraphic"/>
    </filter>
    <filter id="패스_1052" x="24.264" y="238.645" width="46.611" height="57.541" filterUnits="userSpaceOnUse">
      <feOffset input="SourceAlpha"/>
      <feGaussianBlur stdDeviation="1.5" result="blur-4"/>
      <feFlood flood-color="#fff8c1" result="color"/>
      <feComposite operator="out" in="SourceGraphic" in2="blur-4"/>
      <feComposite operator="in" in="color"/>
      <feComposite operator="in" in2="SourceGraphic"/>
    </filter>
  </defs>
  <g id="d-bo-line-06" transform="translate(0 4.604)" opacity="0.5">
    <ellipse id="Guide" cx="455.024" cy="455.025" rx="455.024" ry="455.025" transform="translate(0 10.417)" fill="none"/>
    <g transform="matrix(1, 0, 0, 1, 0, -4.6)" filter="url(#패스_1040)">
      <path id="패스_1040-2" data-name="패스 1040" d="M866.516,365.533C823.731,156.445,632.3,6.193,418.547,6.193c-177.9,0-339.861,104.928-412.623,267.313a3.1,3.1,0,0,1-5.652-2.531C74.034,106.364,238.215,0,418.547,0c216.689,0,405.44,153.84,448.811,365.8.343,1.672-.545,1.2-.842-.264" transform="translate(36.48 11.93)" opacity="0.65" fill="url(#linear-gradient)"/>
    </g>
    <g transform="matrix(1, 0, 0, 1, 0, -4.6)" filter="url(#패스_1055)">
      <path id="패스_1055-2" data-name="패스 1055" d="M751.742,47.271A461.193,461.193,0,0,1,606.561,213.2a458.824,458.824,0,0,1-265.038,83.6c-127.828,0-253.714-51.275-340.8-144.931L0,152.533A467.9,467.9,0,0,0,341.523,301.349a463.361,463.361,0,0,0,267.65-84.424A465.8,465.8,0,0,0,756.242,48.491C764.185,33.04,769.513,16.406,775.742,0c-6.283,16.547-15.947,31.7-24,47.271" transform="translate(801.08 305.91) rotate(179)" opacity="0.5" fill="url(#linear-gradient-2)"/>
    </g>
    <g transform="matrix(1, 0, 0, 1, 0, -4.6)" filter="url(#패스_1056)" style="mix-blend-mode: overlay;isolation: isolate">
      <path id="패스_1056-2" data-name="패스 1056" d="M751.742,47.271A461.193,461.193,0,0,1,606.561,213.2a458.824,458.824,0,0,1-265.038,83.6c-127.828,0-253.714-51.275-340.8-144.931L0,152.533A467.9,467.9,0,0,0,341.523,301.349a463.361,463.361,0,0,0,267.65-84.424A465.8,465.8,0,0,0,756.242,48.491C764.185,33.04,769.513,16.406,775.742,0c-6.283,16.547-15.947,31.7-24,47.271" transform="translate(801.08 305.91) rotate(179)" opacity="0.65" fill="url(#linear-gradient-3)"/>
    </g>
    <path id="패스_1069" data-name="패스 1069" d="M751.742,47.271A461.193,461.193,0,0,1,606.561,213.2a458.824,458.824,0,0,1-265.038,83.6c-127.828,0-253.714-51.275-340.8-144.931L0,152.533A467.9,467.9,0,0,0,341.523,301.349a463.361,463.361,0,0,0,267.65-84.424A465.8,465.8,0,0,0,756.242,48.491C764.185,33.04,769.513,16.406,775.742,0c-6.283,16.547-15.947,31.7-24,47.271" transform="translate(801.077 301.303) rotate(179)" opacity="0.65" fill="url(#linear-gradient-3)" style="mix-blend-mode: overlay;isolation: isolate"/>
    <g data-type="innerShadowGroup">
      <path id="패스_1052-2" data-name="패스 1052" d="M17.6,0C27.285-.1,35.114,2.061,35.083,4.841s-7.909,5.12-17.6,5.228S-.03,8.011,0,5.232,7.909.112,17.6,0Z" transform="translate(60.02 249.468) rotate(117)" fill="#fff8c1" opacity="0.75" style="mix-blend-mode: overlay;isolation: isolate"/>
      <g transform="matrix(1, 0, 0, 1, 0, -4.6)" filter="url(#패스_1052)" style="mix-blend-mode: overlay;isolation: isolate">
        <path id="패스_1052-3" data-name="패스 1052" d="M17.6,0C27.285-.1,35.114,2.061,35.083,4.841s-7.909,5.12-17.6,5.228S-.03,8.011,0,5.232,7.909.112,17.6,0Z" transform="translate(60.02 254.07) rotate(117)" fill="#fff" opacity="0.75"/>
      </g>
    </g>
    <path id="패스_1051" data-name="패스 1051" d="M11.089.007c6.155.116,11.17,1.573,11.2,3.256S17.357,6.216,11.2,6.1.031,4.527,0,2.845,4.934-.108,11.089.007Z" transform="translate(55.591 254.374) rotate(119)" fill="#fffdeb" opacity="0.75" style="mix-blend-mode: overlay;isolation: isolate"/>
  </g>
</svg>
