<svg xmlns="http://www.w3.org/2000/svg" width="20" height="20" viewBox="0 0 20 20">
    <path style="fill:none" d="M0 0h20v20H0z"/>
    <g data-name="패스 2077" style="fill:none">
        <path d="m78.628 33.844-9.434-5.727a.785.785 0 0 0-.8-.015.76.76 0 0 0-.4.671v11.455a.76.76 0 0 0 .4.671.785.785 0 0 0 .8-.015l9.434-5.727a.765.765 0 0 0 0-1.313z" style="stroke:none" transform="translate(-63 -24)"/>
        <path d="M68.783 28.75a.034.034 0 0 0-.017.005l-.01.005c-.004.003-.006.007-.006.014v11.458c0 .003.002.006.006.009l.01.005c.01.006.02.008.039-.003l9.435-5.728c.006-.003.01-.009.01-.014 0-.006-.004-.011-.011-.016l-9.438-5.73a.034.034 0 0 0-.018-.004m0-.75c.143 0 .285.039.411.116l9.434 5.727a.767.767 0 0 1 0 1.313l-9.434 5.727a.785.785 0 0 1-.797.015.76.76 0 0 1-.397-.671V28.774a.76.76 0 0 1 .397-.672.784.784 0 0 1 .386-.101z" style="fill:#257eee;stroke:none" transform="translate(-63 -24)"/>
    </g>
</svg>
