<svg xmlns="http://www.w3.org/2000/svg" width="20" height="20" viewBox="0 0 20 20">
    <path style="fill:none" d="M0 0h20v20H0z"/>
    <path data-name="패스 2075" d="M12.57 60.148a1.081 1.081 0 0 1 1.128.037L21.63 65.4v-4.261a1.121 1.121 0 0 1 .569-.99 1.081 1.081 0 0 1 1.128.037l8.165 5.366a1.149 1.149 0 0 1 0 1.906l-8.165 5.369a1.081 1.081 0 0 1-1.128.037 1.12 1.12 0 0 1-.569-.988v-4.262L13.7 72.83a1.081 1.081 0 0 1-1.128.037 1.121 1.121 0 0 1-.569-.99V61.139a1.121 1.121 0 0 1 .567-.991zm9.8 11.728a.361.361 0 0 0 .185.32.352.352 0 0 0 .37-.012l8.168-5.369a.37.37 0 0 0 0-.616l-8.168-5.369a.357.357 0 0 0-.2-.06.366.366 0 0 0-.362.368zm-9.629 0a.361.361 0 0 0 .185.32.352.352 0 0 0 .37-.012l8.164-5.369a.37.37 0 0 0 0-.616l-8.16-5.368a.357.357 0 0 0-.2-.06.366.366 0 0 0-.362.368z" transform="translate(-12.001 -56.008)" style="fill:#257eee"/>
</svg>
