<svg xmlns="http://www.w3.org/2000/svg" width="20" height="20" viewBox="0 0 20 20">
    <path style="fill:none" d="M0 0h20v20H0z"/>
    <g data-name="패스 2076" style="fill:none">
        <path d="m68.372 33.844 9.434-5.727a.785.785 0 0 1 .8-.015.76.76 0 0 1 .4.671v11.455a.76.76 0 0 1-.4.671.785.785 0 0 1-.8-.015l-9.434-5.727a.765.765 0 0 1 0-1.313z" style="stroke:none" transform="translate(-64 -24)"/>
        <path d="M78.217 28.75a.04.04 0 0 0-.022.008l-9.436 5.728c-.006.004-.01.01-.01.015 0 .005.004.01.012.015l9.438 5.73c.01.006.024.006.034 0l.01-.005c.005-.003.007-.006.007-.013V28.769c0-.002-.002-.006-.007-.009l-.01-.005a.034.034 0 0 0-.016-.004m0-.75c.133 0 .266.033.385.101a.76.76 0 0 1 .398.672v11.454a.76.76 0 0 1-.398.671.785.785 0 0 1-.797-.015l-9.433-5.727a.767.767 0 0 1 0-1.313l9.433-5.727a.784.784 0 0 1 .412-.116z" style="fill:#257eee;stroke:none" transform="translate(-64 -24)"/>
    </g>
</svg>
