<svg xmlns="http://www.w3.org/2000/svg" xmlns:xlink="http://www.w3.org/1999/xlink" width="379.8" height="379.8" viewBox="0 0 379.8 379.8"><defs><linearGradient id="a" x1="0.832" y1="0.538" x2="0.069" y2="0.511" gradientUnits="objectBoundingBox"><stop offset="0" stop-color="#cb877a"/><stop offset="1" stop-color="#cb877a" stop-opacity="0"/></linearGradient><linearGradient id="d" x1="0.905" y1="0.875" x2="0.047" y2="0.076" gradientUnits="objectBoundingBox"><stop offset="0" stop-color="#fff8c1" stop-opacity="0.749"/><stop offset="1" stop-color="#eb7253" stop-opacity="0"/></linearGradient><filter id="e" x="151.43" y="317.63" width="18.788" height="7.59" filterUnits="userSpaceOnUse"><feOffset input="SourceAlpha"/><feGaussianBlur stdDeviation="0.5" result="f"/><feFlood flood-color="#fff8c1" flood-opacity="0.851"/><feComposite operator="in" in2="f"/><feComposite in="SourceGraphic"/></filter><filter id="g" x="151.43" y="317.63" width="18.788" height="7.59" filterUnits="userSpaceOnUse"><feOffset input="SourceAlpha"/><feGaussianBlur stdDeviation="0.5" result="h"/><feFlood flood-color="#eb7253" flood-opacity="0.749" result="i"/><feComposite operator="out" in="SourceGraphic" in2="h"/><feComposite operator="in" in="i"/><feComposite operator="in" in2="SourceGraphic"/></filter><filter id="j" x="151.429" y="317.63" width="18.788" height="7.59" filterUnits="userSpaceOnUse"><feOffset input="SourceAlpha"/><feGaussianBlur stdDeviation="0.5" result="k"/><feFlood flood-color="#fff8c1" flood-opacity="0.851"/><feComposite operator="in" in2="k"/><feComposite in="SourceGraphic"/></filter><filter id="l" x="151.429" y="317.63" width="18.788" height="7.59" filterUnits="userSpaceOnUse"><feOffset input="SourceAlpha"/><feGaussianBlur stdDeviation="0.5" result="m"/><feFlood flood-color="#eb7253" flood-opacity="0.749" result="n"/><feComposite operator="out" in="SourceGraphic" in2="m"/><feComposite operator="in" in="n"/><feComposite operator="in" in2="SourceGraphic"/></filter></defs><g transform="translate(0 0)" opacity="0.65"><ellipse cx="134.792" cy="134.792" rx="134.792" ry="134.792" transform="translate(379.8 173.286) rotate(130)" fill="none"/><path d="M218.381,73.809A134.21,134.21,0,0,0,99.212,1.322c-37.134,0-73.7,14.9-99,42.1L0,43.231A135.51,135.51,0,0,1,219.688,73.455c2.308,4.488,3.855,9.321,5.665,14.086-1.825-4.807-4.633-9.208-6.972-13.732" transform="translate(357.438 200.969) rotate(130)" fill="url(#a)"/><path d="M218.381,73.809A134.21,134.21,0,0,0,99.212,1.322c-37.134,0-73.7,14.9-99,42.1L0,43.231A135.51,135.51,0,0,1,219.688,73.455c2.308,4.488,3.855,9.321,5.665,14.086-1.825-4.807-4.633-9.208-6.972-13.732" transform="translate(357.436 200.969) rotate(130)" opacity="0.65" fill="url(#a)"/><path d="M218.381,73.809A134.21,134.21,0,0,0,99.212,1.322c-37.134,0-73.7,14.9-99,42.1L0,43.231A135.51,135.51,0,0,1,219.688,73.455c2.308,4.488,3.855,9.321,5.665,14.086-1.825-4.807-4.633-9.208-6.972-13.732" transform="translate(357.436 200.969) rotate(130)" fill="url(#a)" style="mix-blend-mode:overlay;isolation:isolate"/><path d="M0,1.384A136.861,136.861,0,0,1,19.4,0,134.737,134.737,0,0,1,91.41,20.766a135.567,135.567,0,0,1,48.926,54.021.33.33,0,0,1-.591.295A134.893,134.893,0,0,0,91.057,21.325,133.992,133.992,0,0,0,19.541.242,139.511,139.511,0,0,0,0,1.384" transform="translate(305.883 261.896) rotate(130)" fill="url(#d)"/><g data-type="innerShadowGroup"><g transform="matrix(1, 0, 0, 1, 0, 0)" filter="url(#e)"><ellipse cx="7.93" cy="0.661" rx="7.93" ry="0.661" transform="matrix(-0.98, -0.21, 0.21, -0.98, 168.44, 323.72)" fill="#fff8c1" opacity="0.5"/></g><g transform="matrix(1, 0, 0, 1, 0, 0)" filter="url(#g)"><ellipse cx="7.93" cy="0.661" rx="7.93" ry="0.661" transform="matrix(-0.98, -0.21, 0.21, -0.98, 168.44, 323.72)" fill="#fff" opacity="0.5"/></g></g><g data-type="innerShadowGroup"><g transform="matrix(1, 0, 0, 1, 0, 0)" filter="url(#j)" style="mix-blend-mode:overlay;isolation:isolate"><ellipse cx="7.93" cy="0.661" rx="7.93" ry="0.661" transform="matrix(-0.98, -0.21, 0.21, -0.98, 168.44, 323.72)" fill="#fff8c1" opacity="0.65"/></g><g transform="matrix(1, 0, 0, 1, 0, 0)" filter="url(#l)" style="mix-blend-mode:overlay;isolation:isolate"><ellipse cx="7.93" cy="0.661" rx="7.93" ry="0.661" transform="matrix(-0.98, -0.21, 0.21, -0.98, 168.44, 323.72)" fill="#fff" opacity="0.65"/></g></g></g></svg>