<svg xmlns="http://www.w3.org/2000/svg" xmlns:xlink="http://www.w3.org/1999/xlink" width="287" height="291.263" viewBox="0 0 287 291.263"><defs><linearGradient id="a" x1="0.832" y1="0.538" x2="0.069" y2="0.511" gradientUnits="objectBoundingBox"><stop offset="0" stop-color="#cb877a"/><stop offset="1" stop-color="#cb877a" stop-opacity="0"/></linearGradient><filter id="b" x="7.965" y="0" width="178.246" height="191.098" filterUnits="userSpaceOnUse"><feOffset input="SourceAlpha"/><feGaussianBlur stdDeviation="1" result="c"/><feFlood flood-color="#eb7253" flood-opacity="0.502"/><feComposite operator="in" in2="c"/><feComposite in="SourceGraphic"/></filter><filter id="d" x="7.965" y="0" width="178.246" height="191.098" filterUnits="userSpaceOnUse"><feOffset input="SourceAlpha"/><feGaussianBlur stdDeviation="1.5" result="e"/><feFlood flood-color="#eb7253" flood-opacity="0.251" result="f"/><feComposite operator="out" in="SourceGraphic" in2="e"/><feComposite operator="in" in="f"/><feComposite operator="in" in2="SourceGraphic"/></filter><filter id="g" x="13.921" y="5.954" width="166.337" height="179.189" filterUnits="userSpaceOnUse"><feOffset input="SourceAlpha"/><feGaussianBlur stdDeviation="1" result="h"/><feFlood flood-color="#eb7253" flood-opacity="0.502"/><feComposite operator="in" in2="h"/></filter><filter id="j" x="157.997" y="45.193" width="14.946" height="6.473" filterUnits="userSpaceOnUse"><feOffset input="SourceAlpha"/><feGaussianBlur stdDeviation="0.5" result="k"/><feFlood flood-color="#fff8c1" flood-opacity="0.851"/><feComposite operator="in" in2="k"/><feComposite in="SourceGraphic"/></filter><filter id="l" x="157.997" y="45.193" width="14.946" height="6.473" filterUnits="userSpaceOnUse"><feOffset input="SourceAlpha"/><feGaussianBlur stdDeviation="0.5" result="m"/><feFlood flood-color="#eb7253" flood-opacity="0.749" result="n"/><feComposite operator="out" in="SourceGraphic" in2="m"/><feComposite operator="in" in="n"/><feComposite operator="in" in2="SourceGraphic"/></filter><linearGradient id="o" x1="0.905" y1="0.875" x2="0.047" y2="0.076" gradientUnits="objectBoundingBox"><stop offset="0" stop-color="#fff8c1" stop-opacity="0.749"/><stop offset="1" stop-color="#eb7253" stop-opacity="0"/></linearGradient></defs><g transform="translate(0 4.263)"><ellipse cx="101.857" cy="101.857" rx="101.857" ry="101.857" transform="translate(0 156.055) rotate(-50)" fill="none"/><g data-type="innerShadowGroup"><g transform="matrix(1, 0, 0, 1, 0, -4.26)" filter="url(#b)"><path d="M165.229,55.845A101.545,101.545,0,0,0,75.065,1C46.969,1,19.3,12.27.158,32.855L0,32.709A102.528,102.528,0,0,1,166.218,55.577,102.826,102.826,0,0,1,170.5,66.235c-1.381-3.637-3.505-6.967-5.275-10.39" transform="translate(16.92 139.57) rotate(-50)" fill="url(#a)"/></g><g transform="matrix(1, 0, 0, 1, 0, -4.26)" filter="url(#d)"><path d="M165.229,55.845A101.545,101.545,0,0,0,75.065,1C46.969,1,19.3,12.27.158,32.855L0,32.709A102.528,102.528,0,0,1,166.218,55.577,102.826,102.826,0,0,1,170.5,66.235c-1.381-3.637-3.505-6.967-5.275-10.39" transform="translate(16.92 139.57) rotate(-50)" fill="#fff"/></g></g><g transform="matrix(1, 0, 0, 1, 0, -4.26)" filter="url(#g)"><path d="M165.229,55.845A101.545,101.545,0,0,0,75.065,1C46.969,1,19.3,12.27.158,32.855L0,32.709A102.528,102.528,0,0,1,166.218,55.577,102.826,102.826,0,0,1,170.5,66.235c-1.381-3.637-3.505-6.967-5.275-10.39" transform="translate(16.92 139.57) rotate(-50)" fill="#fff"/></g><path d="M165.229,55.845A101.545,101.545,0,0,0,75.065,1C46.969,1,19.3,12.27.158,32.855L0,32.709A102.528,102.528,0,0,1,166.218,55.577,102.826,102.826,0,0,1,170.5,66.235c-1.381-3.637-3.505-6.967-5.275-10.39" transform="translate(16.92 135.305) rotate(-50)" fill="url(#a)" style="mix-blend-mode:overlay;isolation:isolate"/><g data-type="innerShadowGroup"><g transform="matrix(1, 0, 0, 1, 0, -4.26)" filter="url(#j)"><ellipse cx="6" cy="0.5" rx="6" ry="0.5" transform="matrix(0.98, 0.21, -0.21, 0.98, 159.71, 46.69)" fill="#fff8c1"/></g><g transform="matrix(1, 0, 0, 1, 0, -4.26)" filter="url(#l)"><ellipse cx="6" cy="0.5" rx="6" ry="0.5" transform="matrix(0.98, 0.21, -0.21, 0.98, 159.71, 46.69)" fill="#fff"/></g></g><path d="M0,1.047A103.55,103.55,0,0,1,14.678,0,101.944,101.944,0,0,1,69.162,15.712,102.571,102.571,0,0,1,106.18,56.585a.25.25,0,0,1-.447.223A102.061,102.061,0,0,0,68.895,16.135,101.379,101.379,0,0,0,14.785.183,105.558,105.558,0,0,0,0,1.047" transform="translate(55.811 89.208) rotate(-50)" fill="url(#o)"/></g></svg>