<svg xmlns="http://www.w3.org/2000/svg" xmlns:xlink="http://www.w3.org/1999/xlink" width="338.861" height="340.783" viewBox="0 0 338.861 340.783"><defs><linearGradient id="a" x1="0.832" y1="0.538" x2="0.069" y2="0.511" gradientUnits="objectBoundingBox"><stop offset="0" stop-color="#257eee"/><stop offset="1" stop-color="#257eee" stop-opacity="0"/></linearGradient><filter id="b" x="122.383" y="121.647" width="203.981" height="219.136" filterUnits="userSpaceOnUse"><feOffset input="SourceAlpha"/><feGaussianBlur stdDeviation="0.5" result="c"/><feFlood flood-color="#257eee" flood-opacity="0.502"/><feComposite operator="in" in2="c"/><feComposite in="SourceGraphic"/></filter><filter id="e" x="128.336" y="127.601" width="192.072" height="207.228" filterUnits="userSpaceOnUse"><feOffset input="SourceAlpha"/><feGaussianBlur stdDeviation="0.5" result="f"/><feFlood flood-color="#257eee"/><feComposite operator="in" in2="f"/><feComposite in="SourceGraphic"/></filter><linearGradient id="g" x1="0.905" y1="0.875" x2="0.047" y2="0.076" gradientUnits="objectBoundingBox"><stop offset="0" stop-color="#2c82ed" stop-opacity="0.749"/><stop offset="1" stop-color="#2c82ed" stop-opacity="0"/></linearGradient><filter id="i" x="132.263" y="280.51" width="22.49" height="12.361" filterUnits="userSpaceOnUse"><feOffset input="SourceAlpha"/><feGaussianBlur stdDeviation="0.5" result="j"/><feFlood flood-color="#257eee" flood-opacity="0.749" result="k"/><feComposite operator="out" in="SourceGraphic" in2="j"/><feComposite operator="in" in="k"/><feComposite operator="in" in2="SourceGraphic"/></filter><filter id="l" x="132.226" y="280.51" width="22.527" height="12.536" filterUnits="userSpaceOnUse"><feOffset input="SourceAlpha"/><feGaussianBlur stdDeviation="0.5" result="m"/><feFlood flood-color="#257eee" flood-opacity="0.749" result="n"/><feComposite operator="out" in="SourceGraphic" in2="m"/><feComposite operator="in" in="n"/><feComposite operator="in" in2="SourceGraphic"/></filter><filter id="o" x="134.946" y="283.23" width="17.087" height="7.096" filterUnits="userSpaceOnUse"><feOffset input="SourceAlpha"/><feGaussianBlur stdDeviation="0.5" result="p"/><feFlood flood-color="#e0feff" flood-opacity="0.502"/><feComposite operator="in" in2="p"/><feComposite in="SourceGraphic"/></filter><filter id="q" x="134.946" y="283.23" width="17.087" height="7.096" filterUnits="userSpaceOnUse"><feOffset input="SourceAlpha"/><feGaussianBlur stdDeviation="0.5" result="r"/><feFlood flood-color="#e0feff" flood-opacity="0.749" result="s"/><feComposite operator="out" in="SourceGraphic" in2="r"/><feComposite operator="in" in="s"/><feComposite operator="in" in2="SourceGraphic"/></filter></defs><g transform="translate(0 0)" opacity="0.65"><ellipse cx="120.263" cy="120.263" rx="120.263" ry="120.263" transform="translate(338.861 154.607) rotate(130)" fill="none"/><g transform="matrix(1, 0, 0, 1, 0, 0)" filter="url(#b)"><path d="M194.841,65.854A119.744,119.744,0,0,0,88.518,1.179c-33.131,0-65.759,13.29-88.332,37.564L0,38.571A120.9,120.9,0,0,1,196.008,65.537a121.255,121.255,0,0,1,5.054,12.568c-1.628-4.289-4.133-8.216-6.22-12.252" transform="translate(318.91 179.31) rotate(130)" fill="url(#a)"/></g><g transform="matrix(1, 0, 0, 1, 0, 0)" filter="url(#e)"><path d="M194.841,65.854A119.744,119.744,0,0,0,88.518,1.179c-33.131,0-65.759,13.29-88.332,37.564L0,38.571A120.9,120.9,0,0,1,196.008,65.537a121.255,121.255,0,0,1,5.054,12.568c-1.628-4.289-4.133-8.216-6.22-12.252" transform="translate(318.91 179.31) rotate(130)" fill="url(#a)"/></g><path d="M0,1.235A122.109,122.109,0,0,1,17.309,0,120.214,120.214,0,0,1,81.557,18.528a120.954,120.954,0,0,1,43.652,48.2.295.295,0,1,1-.527.263,120.353,120.353,0,0,0-43.44-47.962A119.548,119.548,0,0,0,17.435.216,124.477,124.477,0,0,0,0,1.235" transform="translate(272.911 233.664) rotate(130)" fill="url(#g)"/><path d="M194.841,65.854A119.744,119.744,0,0,0,88.518,1.179c-33.131,0-65.759,13.29-88.332,37.564L0,38.571A120.9,120.9,0,0,1,196.008,65.537a121.255,121.255,0,0,1,5.054,12.568c-1.628-4.289-4.133-8.216-6.22-12.252" transform="translate(318.908 179.307) rotate(130)" fill="url(#a)" style="mix-blend-mode:overlay;isolation:isolate"/><g data-type="innerShadowGroup"><ellipse cx="7.075" cy="0.5" rx="7.075" ry="0.5" transform="matrix(-0.978, -0.208, 0.208, -0.978, 150.324, 288.651)" fill="#6ca9f5" opacity="0.5"/><g transform="matrix(1, 0, 0, 1, 0, 0)" filter="url(#i)"><ellipse cx="7.075" cy="0.5" rx="7.075" ry="0.5" transform="matrix(-0.98, -0.21, 0.21, -0.98, 150.32, 288.65)" fill="#fff" opacity="0.5"/></g></g><g data-type="innerShadowGroup"><ellipse cx="7.075" cy="0.59" rx="7.075" ry="0.59" transform="matrix(-0.978, -0.208, 0.208, -0.978, 150.287, 288.826)" fill="#e0feff" opacity="0.2"/><g transform="matrix(1, 0, 0, 1, 0, 0)" filter="url(#l)"><ellipse cx="7.075" cy="0.59" rx="7.075" ry="0.59" transform="matrix(-0.98, -0.21, 0.21, -0.98, 150.29, 288.83)" fill="#fff" opacity="0.2"/></g></g><g data-type="innerShadowGroup"><g transform="matrix(1, 0, 0, 1, 0, 0)" filter="url(#o)" style="mix-blend-mode:overlay;isolation:isolate"><ellipse cx="7.075" cy="0.59" rx="7.075" ry="0.59" transform="matrix(-0.98, -0.21, 0.21, -0.98, 150.29, 288.83)" fill="#e0feff" opacity="0.5"/></g><g transform="matrix(1, 0, 0, 1, 0, 0)" filter="url(#q)" style="mix-blend-mode:overlay;isolation:isolate"><ellipse cx="7.075" cy="0.59" rx="7.075" ry="0.59" transform="matrix(-0.98, -0.21, 0.21, -0.98, 150.29, 288.83)" fill="#fff" opacity="0.5"/></g></g></g></svg>