<svg xmlns="http://www.w3.org/2000/svg" xmlns:xlink="http://www.w3.org/1999/xlink" width="287" height="288.263" viewBox="0 0 287 288.263"><defs><linearGradient id="a" x1="0.832" y1="0.538" x2="0.069" y2="0.511" gradientUnits="objectBoundingBox"><stop offset="0" stop-color="#cb877a"/><stop offset="1" stop-color="#cb877a" stop-opacity="0"/></linearGradient><linearGradient id="d" x1="0.905" y1="0.875" x2="0.047" y2="0.076" gradientUnits="objectBoundingBox"><stop offset="0" stop-color="#fff8c1" stop-opacity="0.749"/><stop offset="1" stop-color="#eb7253" stop-opacity="0"/></linearGradient><filter id="e" x="114.057" y="239.597" width="14.946" height="6.473" filterUnits="userSpaceOnUse"><feOffset input="SourceAlpha"/><feGaussianBlur stdDeviation="0.5" result="f"/><feFlood flood-color="#fff8c1" flood-opacity="0.851"/><feComposite operator="in" in2="f"/><feComposite in="SourceGraphic"/></filter><filter id="g" x="114.057" y="239.597" width="14.946" height="6.473" filterUnits="userSpaceOnUse"><feOffset input="SourceAlpha"/><feGaussianBlur stdDeviation="0.5" result="h"/><feFlood flood-color="#eb7253" flood-opacity="0.749" result="i"/><feComposite operator="out" in="SourceGraphic" in2="h"/><feComposite operator="in" in="i"/><feComposite operator="in" in2="SourceGraphic"/></filter><filter id="j" x="114.056" y="239.597" width="14.946" height="6.473" filterUnits="userSpaceOnUse"><feOffset input="SourceAlpha"/><feGaussianBlur stdDeviation="0.5" result="k"/><feFlood flood-color="#fff8c1" flood-opacity="0.851"/><feComposite operator="in" in2="k"/><feComposite in="SourceGraphic"/></filter><filter id="l" x="114.056" y="239.597" width="14.946" height="6.473" filterUnits="userSpaceOnUse"><feOffset input="SourceAlpha"/><feGaussianBlur stdDeviation="0.5" result="m"/><feFlood flood-color="#eb7253" flood-opacity="0.749" result="n"/><feComposite operator="out" in="SourceGraphic" in2="m"/><feComposite operator="in" in="n"/><feComposite operator="in" in2="SourceGraphic"/></filter></defs><g transform="translate(0)"><g transform="translate(0 0)"><ellipse cx="101.857" cy="101.857" rx="101.857" ry="101.857" transform="translate(287 130.945) rotate(130)" fill="none"/><path d="M165.229,55.845A101.545,101.545,0,0,0,75.065,1C46.969,1,19.3,12.27.158,32.855L0,32.709A102.528,102.528,0,0,1,166.218,55.577,102.826,102.826,0,0,1,170.5,66.235c-1.381-3.637-3.505-6.967-5.275-10.39" transform="translate(270.081 151.695) rotate(130)" fill="url(#a)"/><path d="M165.229,55.845A101.545,101.545,0,0,0,75.065,1C46.969,1,19.3,12.27.158,32.855L0,32.709A102.528,102.528,0,0,1,166.218,55.577,102.826,102.826,0,0,1,170.5,66.235c-1.381-3.637-3.505-6.967-5.275-10.39" transform="translate(270.08 151.695) rotate(130)" opacity="0.65" fill="url(#a)"/><path d="M165.229,55.845A101.545,101.545,0,0,0,75.065,1C46.969,1,19.3,12.27.158,32.855L0,32.709A102.528,102.528,0,0,1,166.218,55.577,102.826,102.826,0,0,1,170.5,66.235c-1.381-3.637-3.505-6.967-5.275-10.39" transform="translate(270.08 151.695) rotate(130)" fill="url(#a)" style="mix-blend-mode:overlay;isolation:isolate"/><path d="M0,1.047A103.55,103.55,0,0,1,14.678,0,101.944,101.944,0,0,1,69.162,15.712,102.571,102.571,0,0,1,106.18,56.585a.25.25,0,0,1-.447.223A102.061,102.061,0,0,0,68.9,16.135,101.379,101.379,0,0,0,14.785.183,105.558,105.558,0,0,0,0,1.047" transform="translate(231.188 197.793) rotate(130)" fill="url(#d)"/><g data-type="innerShadowGroup"><g transform="matrix(1, 0, 0, 1, 0, 0)" filter="url(#e)"><ellipse cx="6" cy="0.5" rx="6" ry="0.5" transform="matrix(-0.98, -0.21, 0.21, -0.98, 127.29, 244.57)" fill="#fff8c1" opacity="0.5"/></g><g transform="matrix(1, 0, 0, 1, 0, 0)" filter="url(#g)"><ellipse cx="6" cy="0.5" rx="6" ry="0.5" transform="matrix(-0.98, -0.21, 0.21, -0.98, 127.29, 244.57)" fill="#fff" opacity="0.5"/></g></g><g data-type="innerShadowGroup"><g transform="matrix(1, 0, 0, 1, 0, 0)" filter="url(#j)" style="mix-blend-mode:overlay;isolation:isolate"><ellipse cx="6" cy="0.5" rx="6" ry="0.5" transform="matrix(-0.98, -0.21, 0.21, -0.98, 127.29, 244.57)" fill="#fff8c1" opacity="0.65"/></g><g transform="matrix(1, 0, 0, 1, 0, 0)" filter="url(#l)" style="mix-blend-mode:overlay;isolation:isolate"><ellipse cx="6" cy="0.5" rx="6" ry="0.5" transform="matrix(-0.98, -0.21, 0.21, -0.98, 127.29, 244.57)" fill="#fff" opacity="0.65"/></g></g></g></g></svg>