<svg xmlns="http://www.w3.org/2000/svg" xmlns:xlink="http://www.w3.org/1999/xlink" width="225.008" height="224" viewBox="0 0 225.008 224"><defs><linearGradient id="a" x1="-0.08" y1="0.813" x2="0.767" y2="0.761" gradientUnits="objectBoundingBox"><stop offset="0" stop-color="#f36784" stop-opacity="0"/><stop offset="1" stop-color="#f36784"/></linearGradient><linearGradient id="c" x1="0.9" y1="0.845" x2="0.094" y2="0.316" gradientUnits="objectBoundingBox"><stop offset="0" stop-color="#f9cba7"/><stop offset="1" stop-color="#f9cba7" stop-opacity="0"/></linearGradient><filter id="d" x="189.001" y="38.686" width="36.007" height="42.999" filterUnits="userSpaceOnUse"><feOffset input="SourceAlpha"/><feGaussianBlur stdDeviation="0.5" result="e"/><feFlood flood-color="#fff8c1"/><feComposite operator="in" in2="e"/><feComposite in="SourceGraphic"/></filter><filter id="f" x="189.001" y="38.686" width="36.007" height="42.999" filterUnits="userSpaceOnUse"><feOffset input="SourceAlpha"/><feGaussianBlur stdDeviation="1.5" result="g"/><feFlood flood-color="#fff8c1" result="h"/><feComposite operator="out" in="SourceGraphic" in2="g"/><feComposite operator="in" in="h"/><feComposite operator="in" in2="SourceGraphic"/></filter><filter id="i" x="196.273" y="47.533" width="22.625" height="27.303" filterUnits="userSpaceOnUse"><feOffset input="SourceAlpha"/><feGaussianBlur stdDeviation="0.5" result="j"/><feFlood flood-color="#fff8c1"/><feComposite operator="in" in2="j"/><feComposite in="SourceGraphic"/></filter></defs><g transform="translate(1.514 3)"><ellipse cx="110" cy="110.125" rx="110" ry="110.125" transform="translate(0 0.75)" fill="none"/><path d="M9.307,88.537C19.649,37.893,65.921,1.5,117.591,1.5a109.435,109.435,0,0,1,99.74,64.747.749.749,0,1,0,1.366-.613A110.707,110.707,0,0,0,9.1,88.6c-.083.4.132.291.2-.064" transform="translate(-7.599)" opacity="0.75" fill="url(#a)"/><path d="M9.307,88.537C19.649,37.893,65.921,1.5,117.591,1.5a109.435,109.435,0,0,1,99.74,64.747.749.749,0,1,0,1.366-.613A110.707,110.707,0,0,0,9.1,88.6c-.083.4.132.291.2-.064" transform="translate(-7.599)" opacity="0.5" fill="url(#a)"/><path d="M110.024,66.691a.749.749,0,0,0,.684-1.057C92.842,25.763,53.074.624,9.4.624c-.414,0-.414.29,0,.29,43.088,0,82.318,26,99.943,65.334a.75.75,0,0,0,.685.443" transform="translate(100.391 0)" opacity="0.5" fill="url(#c)"/><path d="M110.024,66.691a.749.749,0,0,0,.684-1.057C92.842,25.763,53.074.624,9.4.624c-.414,0-.414.29,0,.29,43.088,0,82.318,26,99.943,65.334a.75.75,0,0,0,.685.443" transform="translate(100.391 0)" fill="rgba(255,254,221,0.75)" opacity="0.25"/><path d="M110.024,66.691a.749.749,0,0,0,.684-1.057C92.842,25.763,53.074.624,9.4.624c-.414,0-.414.29,0,.29,43.088,0,82.318,26,99.943,65.334a.75.75,0,0,0,.685.443" transform="translate(100.391 0)" fill="rgba(250,244,29,0.15)" opacity="0.5"/><path d="M110.024,66.691a.749.749,0,0,0,.684-1.057C92.842,25.763,53.074.624,9.4.624c-.414,0-.414.29,0,.29,43.088,0,82.318,26,99.943,65.334a.75.75,0,0,0,.685.443" transform="translate(100.391 0)" fill="rgba(255,253,180,0.25)" style="mix-blend-mode:overlay;isolation:isolate"/><path d="M9.307,88.537C19.649,37.893,65.921,1.5,117.591,1.5a109.435,109.435,0,0,1,99.74,64.747.749.749,0,1,0,1.366-.613A110.707,110.707,0,0,0,9.1,88.6c-.083.4.132.291.2-.064" transform="translate(-7.599)" fill="#d69624" opacity="0.1"/><path d="M110.024,66.691a.749.749,0,0,0,.684-1.057C92.842,25.763,53.074.624,9.4.624c-.414,0-.414.29,0,.29,43.088,0,82.318,26,99.943,65.334a.75.75,0,0,0,.685.443" transform="translate(100.391 0)" fill="rgba(255,254,221,0.75)" opacity="0.25" style="mix-blend-mode:overlay;isolation:isolate"/><g data-type="innerShadowGroup"><g transform="matrix(1, 0, 0, 1, -1.51, -3)" filter="url(#d)" style="mix-blend-mode:overlay;isolation:isolate"><ellipse cx="9.5" cy="1.5" rx="9.5" ry="1.5" transform="matrix(0.45, 0.89, -0.89, 0.45, 204.03, 51.04)" fill="#fff8c1" opacity="0.75"/></g><g transform="matrix(1, 0, 0, 1, -1.51, -3)" filter="url(#f)" style="mix-blend-mode:overlay;isolation:isolate"><ellipse cx="9.5" cy="1.5" rx="9.5" ry="1.5" transform="matrix(0.45, 0.89, -0.89, 0.45, 204.03, 51.04)" fill="#fff" opacity="0.75"/></g></g><g transform="matrix(1, 0, 0, 1, -1.51, -3)" filter="url(#i)" style="mix-blend-mode:overlay;isolation:isolate"><ellipse cx="7" cy="1" rx="7" ry="1" transform="matrix(0.48, 0.87, -0.87, 0.48, 205.07, 54.58)" fill="#fffdeb" opacity="0.75"/></g></g></svg>