<svg xmlns="http://www.w3.org/2000/svg" xmlns:xlink="http://www.w3.org/1999/xlink" width="225.434" height="226.552" viewBox="0 0 225.434 226.552"><defs><linearGradient id="a" x1="1.08" y1="0.187" x2="0.233" y2="0.239" gradientUnits="objectBoundingBox"><stop offset="0" stop-color="#2775ff" stop-opacity="0"/><stop offset="1" stop-color="#2775ff"/></linearGradient><filter id="b" x="0" y="142.449" width="36.007" height="42.999" filterUnits="userSpaceOnUse"><feOffset input="SourceAlpha"/><feGaussianBlur stdDeviation="0.5" result="c"/><feFlood flood-color="#257eee"/><feComposite operator="in" in2="c"/></filter><filter id="d" x="0" y="142.449" width="36.007" height="42.999" filterUnits="userSpaceOnUse"><feOffset input="SourceAlpha"/><feGaussianBlur stdDeviation="1.5" result="e"/><feFlood flood-color="#257eee" result="f"/><feComposite operator="out" in="SourceGraphic" in2="e"/><feComposite operator="in" in="f"/><feComposite operator="in" in2="SourceGraphic"/></filter><filter id="g" x="6.111" y="149.297" width="22.625" height="27.303" filterUnits="userSpaceOnUse"><feOffset input="SourceAlpha"/><feGaussianBlur stdDeviation="0.5" result="h"/><feFlood flood-color="#257eee"/><feComposite operator="in" in2="h"/><feComposite in="SourceGraphic"/></filter><filter id="i" x="6.111" y="149.298" width="22.625" height="27.303" filterUnits="userSpaceOnUse"><feOffset input="SourceAlpha"/><feGaussianBlur stdDeviation="0.5" result="j"/><feFlood flood-color="#257eee"/><feComposite operator="in" in2="j"/><feComposite in="SourceGraphic"/></filter></defs><g transform="translate(3.495 0)"><circle cx="110.213" cy="110.213" r="110.213" transform="translate(0 0)" fill="none"/><path d="M209.882.321c-10.363,50.644-56.729,87.037-108.5,87.037A109.668,109.668,0,0,1,1.435,22.611a.75.75,0,0,0-1.369.613A111.17,111.17,0,0,0,101.378,88.858,111.29,111.29,0,0,0,210.086.257c.083-.4-.132-.291-.2.064" transform="translate(8.835 132.318)" fill="#2775ff"/><path d="M209.882.321c-10.363,50.644-56.729,87.037-108.5,87.037A109.668,109.668,0,0,1,1.435,22.611a.75.75,0,0,0-1.369.613A111.17,111.17,0,0,0,101.378,88.858,111.29,111.29,0,0,0,210.086.257c.083-.4-.132-.291-.2.064" transform="translate(8.835 132.318)" fill="url(#a)" style="mix-blend-mode:overlay;isolation:isolate"/><path d="M.75,0A.749.749,0,0,0,.066,1.057C17.932,40.928,57.7,66.067,101.378,66.067c.414,0,.414-.29,0-.29-43.088,0-82.318-26-99.943-65.334A.75.75,0,0,0,.75,0" transform="translate(8.835 154.485)" fill="#2775ff"/><path d="M.75,0A.749.749,0,0,0,.066,1.057C17.932,40.928,57.7,66.067,101.378,66.067c.414,0,.414-.29,0-.29-43.088,0-82.318-26-99.943-65.334A.75.75,0,0,0,.75,0" transform="translate(8.835 154.485)" fill="rgba(39,117,255,0.75)" opacity="0.5"/><path d="M.75,0A.749.749,0,0,0,.066,1.057C17.932,40.928,57.7,66.067,101.378,66.067c.414,0,.414-.29,0-.29-43.088,0-82.318-26-99.943-65.334A.75.75,0,0,0,.75,0" transform="translate(8.835 154.485)" fill="rgba(39,117,255,0.15)"/><path d="M.75,0A.749.749,0,0,0,.066,1.057C17.932,40.928,57.7,66.067,101.378,66.067c.414,0,.414-.29,0-.29-43.088,0-82.318-26-99.943-65.334A.75.75,0,0,0,.75,0" transform="translate(8.835 154.485)" fill="#74c0ef" opacity="0.75" style="mix-blend-mode:overlay;isolation:isolate"/><g data-type="innerShadowGroup"><g transform="matrix(1, 0, 0, 1, -3.49, 0)" filter="url(#b)" style="mix-blend-mode:overlay;isolation:isolate"><ellipse cx="9.5" cy="1.5" rx="9.5" ry="1.5" transform="matrix(-0.45, -0.89, 0.89, -0.45, 20.98, 173.09)" fill="#fff" opacity="0.5"/></g><g transform="matrix(1, 0, 0, 1, -3.49, 0)" filter="url(#d)" style="mix-blend-mode:overlay;isolation:isolate"><ellipse cx="9.5" cy="1.5" rx="9.5" ry="1.5" transform="matrix(-0.45, -0.89, 0.89, -0.45, 20.98, 173.09)" fill="#fff" opacity="0.5"/></g></g><g transform="matrix(1, 0, 0, 1, -3.49, 0)" filter="url(#g)" style="mix-blend-mode:overlay;isolation:isolate"><ellipse cx="7" cy="1" rx="7" ry="1" transform="matrix(-0.48, -0.87, 0.87, -0.48, 19.94, 169.56)" fill="#e0feff" opacity="0.5"/></g><g transform="matrix(1, 0, 0, 1, -3.49, 0)" filter="url(#i)" style="mix-blend-mode:overlay;isolation:isolate"><ellipse cx="7" cy="1" rx="7" ry="1" transform="matrix(-0.48, -0.87, 0.87, -0.48, 19.94, 169.56)" fill="#e0feff" opacity="0.5"/></g></g></svg>