<svg xmlns="http://www.w3.org/2000/svg" xmlns:xlink="http://www.w3.org/1999/xlink" width="355.518" height="357.168" viewBox="0 0 355.518 357.168"><defs><linearGradient id="a" x1="0.832" y1="0.538" x2="0.069" y2="0.511" gradientUnits="objectBoundingBox"><stop offset="0" stop-color="#257eee"/><stop offset="1" stop-color="#257eee" stop-opacity="0"/></linearGradient><filter id="b" x="128.765" y="127.993" width="213.275" height="229.175" filterUnits="userSpaceOnUse"><feOffset input="SourceAlpha"/><feGaussianBlur stdDeviation="0.5" result="c"/><feFlood flood-color="#257eee" flood-opacity="0.502"/><feComposite operator="in" in2="c"/><feComposite in="SourceGraphic"/></filter><filter id="d" x="128.765" y="127.993" width="213.275" height="229.175" filterUnits="userSpaceOnUse"><feOffset input="SourceAlpha"/><feGaussianBlur stdDeviation="1.5" result="e"/><feFlood flood-color="#257eee" flood-opacity="0.251" result="f"/><feComposite operator="out" in="SourceGraphic" in2="e"/><feComposite operator="in" in="f"/><feComposite operator="in" in2="SourceGraphic"/></filter><filter id="h" x="134.718" y="133.947" width="201.366" height="217.266" filterUnits="userSpaceOnUse"><feOffset input="SourceAlpha"/><feGaussianBlur stdDeviation="0.5" result="i"/><feFlood flood-color="#257eee"/><feComposite operator="in" in2="i"/><feComposite in="SourceGraphic"/></filter><linearGradient id="j" x1="0.905" y1="0.875" x2="0.047" y2="0.076" gradientUnits="objectBoundingBox"><stop offset="0" stop-color="#2c82ed" stop-opacity="0.749"/><stop offset="1" stop-color="#2c82ed" stop-opacity="0"/></linearGradient><filter id="l" x="143.192" y="298.726" width="14.74" height="4.113" filterUnits="userSpaceOnUse"><feOffset input="SourceAlpha"/><feGaussianBlur stdDeviation="0.5" result="m"/><feFlood flood-color="#257eee" flood-opacity="0.749" result="n"/><feComposite operator="out" in="SourceGraphic" in2="m"/><feComposite operator="in" in="n"/><feComposite operator="in" in2="SourceGraphic"/></filter><filter id="o" x="143.153" y="298.726" width="14.779" height="4.297" filterUnits="userSpaceOnUse"><feOffset input="SourceAlpha"/><feGaussianBlur stdDeviation="0.5" result="p"/><feFlood flood-color="#257eee" flood-opacity="0.749" result="q"/><feComposite operator="out" in="SourceGraphic" in2="p"/><feComposite operator="in" in="q"/><feComposite operator="in" in2="SourceGraphic"/></filter><filter id="r" x="137.433" y="293.006" width="26.219" height="15.737" filterUnits="userSpaceOnUse"><feOffset input="SourceAlpha"/><feGaussianBlur stdDeviation="0.5" result="s"/><feFlood flood-color="#e0feff" flood-opacity="0.502"/><feComposite operator="in" in2="s"/><feComposite in="SourceGraphic"/></filter><filter id="t" x="137.433" y="293.006" width="26.219" height="15.737" filterUnits="userSpaceOnUse"><feOffset input="SourceAlpha"/><feGaussianBlur stdDeviation="0.5" result="u"/><feFlood flood-color="#e0feff" flood-opacity="0.749" result="v"/><feComposite operator="out" in="SourceGraphic" in2="u"/><feComposite operator="in" in="v"/><feComposite operator="in" in2="SourceGraphic"/></filter></defs><g transform="translate(0 0)" opacity="0.85"><circle cx="126.175" cy="126.175" r="126.175" transform="translate(355.518 162.207) rotate(130)" fill="none"/><g data-type="innerShadowGroup"><g transform="matrix(1, 0, 0, 1, 0, 0)" filter="url(#b)"><path d="M204.418,69.09A125.63,125.63,0,0,0,92.869,1.237C58.109,1.237,23.878,15.18.2,40.648L0,40.467A126.846,126.846,0,0,1,205.642,68.759c2.16,4.2,3.609,8.725,5.3,13.186-1.709-4.5-4.336-8.619-6.526-12.854" transform="translate(334.59 188.12) rotate(130)" fill="url(#a)"/></g><g transform="matrix(1, 0, 0, 1, 0, 0)" filter="url(#d)"><path d="M204.418,69.09A125.63,125.63,0,0,0,92.869,1.237C58.109,1.237,23.878,15.18.2,40.648L0,40.467A126.846,126.846,0,0,1,205.642,68.759c2.16,4.2,3.609,8.725,5.3,13.186-1.709-4.5-4.336-8.619-6.526-12.854" transform="translate(334.59 188.12) rotate(130)" fill="#fff"/></g></g><g transform="matrix(1, 0, 0, 1, 0, 0)" filter="url(#h)"><path d="M204.418,69.09A125.63,125.63,0,0,0,92.869,1.237C58.109,1.237,23.878,15.18.2,40.648L0,40.467A126.846,126.846,0,0,1,205.642,68.759c2.16,4.2,3.609,8.725,5.3,13.186-1.709-4.5-4.336-8.619-6.526-12.854" transform="translate(334.58 188.12) rotate(130)" fill="url(#a)"/></g><path d="M0,1.3A128.111,128.111,0,0,1,18.159,0,126.123,126.123,0,0,1,85.566,19.439a126.9,126.9,0,0,1,45.8,50.567.309.309,0,1,1-.553.276,126.268,126.268,0,0,0-45.575-50.32A125.425,125.425,0,0,0,18.292.226,130.6,130.6,0,0,0,0,1.3" transform="translate(286.325 245.15) rotate(130)" fill="url(#j)"/><path d="M204.418,69.09A125.63,125.63,0,0,0,92.869,1.237C58.109,1.237,23.878,15.18.2,40.648L0,40.467A126.846,126.846,0,0,1,205.642,68.759c2.16,4.2,3.609,8.725,5.3,13.186-1.709-4.5-4.336-8.619-6.526-12.854" transform="translate(334.584 188.12) rotate(130)" fill="url(#a)" style="mix-blend-mode:overlay;isolation:isolate"/><g data-type="innerShadowGroup"><ellipse cx="7.423" cy="0.525" rx="7.423" ry="0.525" transform="matrix(-0.978, -0.208, 0.208, -0.978, 157.713, 302.839)" fill="#6ca9f5" opacity="0.25"/><g transform="matrix(1, 0, 0, 1, 0, 0)" filter="url(#l)"><ellipse cx="7.423" cy="0.525" rx="7.423" ry="0.525" transform="matrix(-0.98, -0.21, 0.21, -0.98, 157.71, 302.84)" fill="#fff" opacity="0.25"/></g></g><g data-type="innerShadowGroup"><ellipse cx="7.423" cy="0.619" rx="7.423" ry="0.619" transform="matrix(-0.978, -0.208, 0.208, -0.978, 157.674, 303.023)" fill="#e0feff" opacity="0.2"/><g transform="matrix(1, 0, 0, 1, 0, 0)" filter="url(#o)"><ellipse cx="7.423" cy="0.619" rx="7.423" ry="0.619" transform="matrix(-0.98, -0.21, 0.21, -0.98, 157.67, 303.02)" fill="#fff" opacity="0.2"/></g></g><g data-type="innerShadowGroup"><g transform="matrix(1, 0, 0, 1, 0, 0)" filter="url(#r)" style="mix-blend-mode:overlay;isolation:isolate"><ellipse cx="7.423" cy="0.619" rx="7.423" ry="0.619" transform="matrix(-0.98, -0.21, 0.21, -0.98, 157.67, 303.02)" fill="#e0feff" opacity="0.5"/></g><g transform="matrix(1, 0, 0, 1, 0, 0)" filter="url(#t)" style="mix-blend-mode:overlay;isolation:isolate"><ellipse cx="7.423" cy="0.619" rx="7.423" ry="0.619" transform="matrix(-0.98, -0.21, 0.21, -0.98, 157.67, 303.02)" fill="#fff" opacity="0.5"/></g></g></g></svg>