<svg xmlns="http://www.w3.org/2000/svg" xmlns:xlink="http://www.w3.org/1999/xlink" width="374.668" height="374.668" viewBox="0 0 374.668 374.668"><defs><linearGradient id="a" x1="0.832" y1="0.538" x2="0.069" y2="0.511" gradientUnits="objectBoundingBox"><stop offset="0" stop-color="#cb877a"/><stop offset="1" stop-color="#cb877a" stop-opacity="0"/></linearGradient><linearGradient id="d" x1="0.905" y1="0.875" x2="0.047" y2="0.076" gradientUnits="objectBoundingBox"><stop offset="0" stop-color="#fff8c1" stop-opacity="0.749"/><stop offset="1" stop-color="#eb7253" stop-opacity="0"/></linearGradient><filter id="e" x="149.364" y="313.318" width="18.575" height="7.528" filterUnits="userSpaceOnUse"><feOffset input="SourceAlpha"/><feGaussianBlur stdDeviation="0.5" result="f"/><feFlood flood-color="#fff8c1" flood-opacity="0.851"/><feComposite operator="in" in2="f"/><feComposite in="SourceGraphic"/></filter><filter id="g" x="149.364" y="313.318" width="18.575" height="7.528" filterUnits="userSpaceOnUse"><feOffset input="SourceAlpha"/><feGaussianBlur stdDeviation="0.5" result="h"/><feFlood flood-color="#eb7253" flood-opacity="0.749" result="i"/><feComposite operator="out" in="SourceGraphic" in2="h"/><feComposite operator="in" in="i"/><feComposite operator="in" in2="SourceGraphic"/></filter><filter id="j" x="149.362" y="313.318" width="18.575" height="7.528" filterUnits="userSpaceOnUse"><feOffset input="SourceAlpha"/><feGaussianBlur stdDeviation="0.5" result="k"/><feFlood flood-color="#fff8c1" flood-opacity="0.851"/><feComposite operator="in" in2="k"/><feComposite in="SourceGraphic"/></filter><filter id="l" x="149.362" y="313.318" width="18.575" height="7.528" filterUnits="userSpaceOnUse"><feOffset input="SourceAlpha"/><feGaussianBlur stdDeviation="0.5" result="m"/><feFlood flood-color="#eb7253" flood-opacity="0.749" result="n"/><feComposite operator="out" in="SourceGraphic" in2="m"/><feComposite operator="in" in="n"/><feComposite operator="in" in2="SourceGraphic"/></filter></defs><g transform="translate(0 0)"><ellipse cx="132.971" cy="132.971" rx="132.971" ry="132.971" transform="translate(374.668 170.944) rotate(130)" fill="none"/><path d="M215.43,72.812A132.4,132.4,0,0,0,97.872,1.3C61.239,1.3,25.164,16,.206,42.837L0,42.647A133.679,133.679,0,0,1,216.719,72.463c2.276,4.428,3.8,9.195,5.588,13.9-1.8-4.742-4.57-9.084-6.878-13.547" transform="translate(352.608 198.254) rotate(130)" fill="url(#a)"/><path d="M215.43,72.812A132.4,132.4,0,0,0,97.872,1.3C61.239,1.3,25.164,16,.206,42.837L0,42.647A133.679,133.679,0,0,1,216.719,72.463c2.276,4.428,3.8,9.195,5.588,13.9-1.8-4.742-4.57-9.084-6.878-13.547" transform="translate(352.607 198.254) rotate(130)" opacity="0.65" fill="url(#a)"/><path d="M215.43,72.812A132.4,132.4,0,0,0,97.872,1.3C61.239,1.3,25.164,16,.206,42.837L0,42.647A133.679,133.679,0,0,1,216.719,72.463c2.276,4.428,3.8,9.195,5.588,13.9-1.8-4.742-4.57-9.084-6.878-13.547" transform="translate(352.607 198.254) rotate(130)" fill="url(#a)" style="mix-blend-mode:overlay;isolation:isolate"/><path d="M0,1.365A135.013,135.013,0,0,1,19.138,0,132.917,132.917,0,0,1,90.175,20.486,133.735,133.735,0,0,1,138.44,73.777a.326.326,0,0,1-.583.291,133.07,133.07,0,0,0-48.03-53.03A132.181,132.181,0,0,0,19.277.239,137.627,137.627,0,0,0,0,1.365" transform="translate(301.75 258.357) rotate(130)" fill="url(#d)"/><g data-type="innerShadowGroup"><g transform="matrix(1, 0, 0, 1, 0, 0)" filter="url(#e)"><ellipse cx="7.823" cy="0.652" rx="7.823" ry="0.652" transform="matrix(-0.98, -0.21, 0.21, -0.98, 166.17, 319.35)" fill="#fff8c1" opacity="0.4"/></g><g transform="matrix(1, 0, 0, 1, 0, 0)" filter="url(#g)"><ellipse cx="7.823" cy="0.652" rx="7.823" ry="0.652" transform="matrix(-0.98, -0.21, 0.21, -0.98, 166.17, 319.35)" fill="#fff" opacity="0.4"/></g></g><g data-type="innerShadowGroup"><g transform="matrix(1, 0, 0, 1, 0, 0)" filter="url(#j)" style="mix-blend-mode:overlay;isolation:isolate"><ellipse cx="7.823" cy="0.652" rx="7.823" ry="0.652" transform="matrix(-0.98, -0.21, 0.21, -0.98, 166.17, 319.35)" fill="#fff8c1" opacity="0.55"/></g><g transform="matrix(1, 0, 0, 1, 0, 0)" filter="url(#l)" style="mix-blend-mode:overlay;isolation:isolate"><ellipse cx="7.823" cy="0.652" rx="7.823" ry="0.652" transform="matrix(-0.98, -0.21, 0.21, -0.98, 166.17, 319.35)" fill="#fff" opacity="0.55"/></g></g></g></svg>