<svg xmlns="http://www.w3.org/2000/svg" xmlns:xlink="http://www.w3.org/1999/xlink" width="497.019" height="503.303" viewBox="0 0 497.019 503.303">
  <defs>
    <linearGradient id="linear-gradient" x1="1.08" y1="0.813" x2="0.233" y2="0.761" gradientUnits="objectBoundingBox">
      <stop offset="0" stop-color="#2775ff" stop-opacity="0"/>
      <stop offset="1" stop-color="#2775ff"/>
    </linearGradient>
    <filter id="원형" x="7.622" y="86.816" width="58.032" height="80.196" filterUnits="userSpaceOnUse">
      <feOffset input="SourceAlpha"/>
      <feGaussianBlur stdDeviation="0.5" result="blur"/>
      <feFlood flood-color="#257eee"/>
      <feComposite operator="in" in2="blur"/>
    </filter>
    <filter id="원형-2" x="7.622" y="86.816" width="58.032" height="80.196" filterUnits="userSpaceOnUse">
      <feOffset input="SourceAlpha"/>
      <feGaussianBlur stdDeviation="1.5" result="blur-2"/>
      <feFlood flood-color="#257eee" result="color"/>
      <feComposite operator="out" in="SourceGraphic" in2="blur-2"/>
      <feComposite operator="in" in="color"/>
      <feComposite operator="in" in2="SourceGraphic"/>
    </filter>
    <filter id="원형-3" x="14.737" y="90.408" width="47.084" height="67.808" filterUnits="userSpaceOnUse">
      <feOffset input="SourceAlpha"/>
      <feGaussianBlur stdDeviation="0.5" result="blur-3"/>
      <feFlood flood-color="#257eee"/>
      <feComposite operator="in" in2="blur-3"/>
      <feComposite in="SourceGraphic"/>
    </filter>
    <filter id="원형-4" x="14.738" y="94.804" width="44.227" height="63.178" filterUnits="userSpaceOnUse">
      <feOffset input="SourceAlpha"/>
      <feGaussianBlur stdDeviation="0.5" result="blur-4"/>
      <feFlood flood-color="#257eee"/>
      <feComposite operator="in" in2="blur-4"/>
      <feComposite in="SourceGraphic"/>
    </filter>
  </defs>
  <g id="db-line-11" transform="translate(0 4.593)" opacity="0.85">
    <circle id="Guide" cx="248.509" cy="248.509" r="248.509" transform="translate(0 1.691)" fill="none"/>
    <path id="패스_1040" data-name="패스 1040" d="M473.244,199.634C449.878,85.442,345.331,3.382,228.588,3.382A247.28,247.28,0,0,0,3.236,149.374a1.691,1.691,0,0,1-3.087-1.382A250.668,250.668,0,0,1,228.588,0C346.932,0,450.017,84.019,473.7,199.779c.187.913-.3.656-.46-.144" transform="translate(19.921 0)" fill="#2775ff"/>
    <path id="패스_1038" data-name="패스 1038" d="M473.244,199.634C449.878,85.442,345.331,3.382,228.588,3.382A247.28,247.28,0,0,0,3.236,149.374a1.691,1.691,0,0,1-3.087-1.382A250.668,250.668,0,0,1,228.588,0C346.932,0,450.017,84.019,473.7,199.779c.187.913-.3.656-.46-.144" transform="translate(19.921 0)" fill="url(#linear-gradient)" style="mix-blend-mode: overlay;isolation: isolate"/>
    <path id="패스_1039" data-name="패스 1039" d="M1.691,148.969a1.69,1.69,0,0,1-1.542-2.383C40.433,56.684,130.1,0,228.588,0c.933,0,.933.654,0,.654C131.433.654,42.977,59.281,3.236,147.97a1.692,1.692,0,0,1-1.545,1" transform="translate(19.921 1.407)" fill="#2775ff"/>
    <path id="패스_1041" data-name="패스 1041" d="M1.691,148.969a1.69,1.69,0,0,1-1.542-2.383C40.433,56.684,130.1,0,228.588,0c.933,0,.933.654,0,.654C131.433.654,42.977,59.281,3.236,147.97a1.692,1.692,0,0,1-1.545,1" transform="translate(19.921 1.407)" fill="rgba(39,117,255,0.75)" opacity="0.5"/>
    <path id="패스_1043" data-name="패스 1043" d="M1.691,148.969a1.69,1.69,0,0,1-1.542-2.383C40.433,56.684,130.1,0,228.588,0c.933,0,.933.654,0,.654C131.433.654,42.977,59.281,3.236,147.97a1.692,1.692,0,0,1-1.545,1" transform="translate(19.921 1.407)" fill="rgba(39,117,255,0.15)"/>
    <path id="패스_1044" data-name="패스 1044" d="M1.691,148.969a1.69,1.69,0,0,1-1.542-2.383C40.433,56.684,130.1,0,228.588,0c.933,0,.933.654,0,.654C131.433.654,42.977,59.281,3.236,147.97a1.692,1.692,0,0,1-1.545,1" transform="translate(19.921 1.407)" fill="#74c0ef" opacity="0.75" style="mix-blend-mode: overlay;isolation: isolate"/>
    <g data-type="innerShadowGroup">
      <g transform="matrix(1, 0, 0, 1, 0, -4.59)" filter="url(#원형)" style="mix-blend-mode: overlay;isolation: isolate">
        <path id="원형-5" data-name="원형" d="M36.953.893c11.83,0,21.421,1.514,21.421,3.382s-9.59,3.382-21.421,3.382S0,2.677,0,.809,25.122.893,36.953.893Z" transform="translate(53.3 102.65) rotate(117)" fill="#fff" opacity="0.5"/>
      </g>
      <g transform="matrix(1, 0, 0, 1, 0, -4.59)" filter="url(#원형-2)" style="mix-blend-mode: overlay;isolation: isolate">
        <path id="원형-6" data-name="원형" d="M36.953.893c11.83,0,21.421,1.514,21.421,3.382s-9.59,3.382-21.421,3.382S0,2.677,0,.809,25.122.893,36.953.893Z" transform="translate(53.3 102.65) rotate(117)" fill="#fff" opacity="0.5"/>
      </g>
    </g>
    <g transform="matrix(1, 0, 0, 1, 0, -4.59)" filter="url(#원형-3)" style="mix-blend-mode: overlay;isolation: isolate">
      <path id="원형-7" data-name="원형" d="M42.693.8c8.717,0,15.784,1.01,15.784,2.255S51.41,5.312,42.693,5.312,0,1.726,0,.481,33.976.8,42.693.8Z" transform="translate(54.78 100.03) rotate(119)" fill="#e0feff" opacity="0.5"/>
    </g>
    <g transform="matrix(1, 0, 0, 1, 0, -4.59)" filter="url(#원형-4)" style="mix-blend-mode: overlay;isolation: isolate">
      <path id="원형-8" data-name="원형" d="M37.665.323c8.717,0,15.784,1.01,15.784,2.255S46.382,4.832,37.665,4.832,0,1.9,0,.655,28.948.323,37.665.323Z" transform="translate(51.92 104.19) rotate(119)" fill="#e0feff" opacity="0.5"/>
    </g>
  </g>
</svg>
