<svg xmlns="http://www.w3.org/2000/svg" xmlns:xlink="http://www.w3.org/1999/xlink" width="417.034" height="421.263" viewBox="0 0 417.034 421.263">
  <defs>
    <linearGradient id="linear-gradient" x1="1.08" y1="0.813" x2="0.233" y2="0.761" gradientUnits="objectBoundingBox">
      <stop offset="0" stop-color="#f36784" stop-opacity="0"/>
      <stop offset="1" stop-color="#f36784"/>
    </linearGradient>
    <linearGradient id="linear-gradient-3" x1="0.1" y1="0.845" x2="0.906" y2="0.316" gradientUnits="objectBoundingBox">
      <stop offset="0" stop-color="#f9cba7"/>
      <stop offset="1" stop-color="#f9cba7" stop-opacity="0"/>
    </linearGradient>
    <filter id="타원_100" x="4.4" y="81.573" width="46.075" height="59.298" filterUnits="userSpaceOnUse">
      <feOffset input="SourceAlpha"/>
      <feGaussianBlur stdDeviation="0.5" result="blur"/>
      <feFlood flood-color="#fff8c1"/>
      <feComposite operator="in" in2="blur"/>
      <feComposite in="SourceGraphic"/>
    </filter>
    <filter id="타원_100-2" x="4.4" y="81.573" width="46.075" height="59.298" filterUnits="userSpaceOnUse">
      <feOffset input="SourceAlpha"/>
      <feGaussianBlur stdDeviation="1.5" result="blur-2"/>
      <feFlood flood-color="#fff8c1" result="color"/>
      <feComposite operator="out" in="SourceGraphic" in2="blur-2"/>
      <feComposite operator="in" in="color"/>
      <feComposite operator="in" in2="SourceGraphic"/>
    </filter>
    <filter id="타원_101" x="11.224" y="93.575" width="30.232" height="39.078" filterUnits="userSpaceOnUse">
      <feOffset input="SourceAlpha"/>
      <feGaussianBlur stdDeviation="0.5" result="blur-3"/>
      <feFlood flood-color="#fff8c1"/>
      <feComposite operator="in" in2="blur-3"/>
      <feComposite in="SourceGraphic"/>
    </filter>
  </defs>
  <g id="db-line-03" transform="translate(0 3)">
    <circle id="Guide" cx="208.423" cy="208.423" r="208.423" transform="translate(0 1.418)" fill="none"/>
    <path id="패스_1040" data-name="패스 1040" d="M396.905,167.431C377.308,71.659,289.626,2.837,191.715,2.837a207.391,207.391,0,0,0-189,122.442A1.418,1.418,0,0,1,.125,124.12,210.233,210.233,0,0,1,191.715,0c99.254,0,185.711,70.466,205.576,167.552.157.766-.25.55-.386-.121" transform="translate(16.708 0)" opacity="0.75" fill="url(#linear-gradient)"/>
    <path id="패스_1038" data-name="패스 1038" d="M396.905,167.431C377.308,71.659,289.626,2.837,191.715,2.837a207.391,207.391,0,0,0-189,122.442A1.418,1.418,0,0,1,.125,124.12,210.233,210.233,0,0,1,191.715,0c99.254,0,185.711,70.466,205.576,167.552.157.766-.25.55-.386-.121" transform="translate(16.708 0)" opacity="0.5" fill="url(#linear-gradient)"/>
    <path id="패스_1039" data-name="패스 1039" d="M1.418,124.939a1.417,1.417,0,0,1-1.294-2C33.911,47.54,109.116,0,191.715,0c.783,0,.783.548,0,.548-81.483,0-155.671,49.17-189,123.552a1.419,1.419,0,0,1-1.3.838" transform="translate(16.708 1.18)" opacity="0.5" fill="url(#linear-gradient-3)"/>
    <path id="패스_1041" data-name="패스 1041" d="M1.418,124.939a1.417,1.417,0,0,1-1.294-2C33.911,47.54,109.116,0,191.715,0c.783,0,.783.548,0,.548-81.483,0-155.671,49.17-189,123.552a1.419,1.419,0,0,1-1.3.838" transform="translate(16.708 1.18)" fill="rgba(255,254,221,0.75)" opacity="0.25"/>
    <path id="패스_1043" data-name="패스 1043" d="M1.418,124.939a1.417,1.417,0,0,1-1.294-2C33.911,47.54,109.116,0,191.715,0c.783,0,.783.548,0,.548-81.483,0-155.671,49.17-189,123.552a1.419,1.419,0,0,1-1.3.838" transform="translate(16.708 1.18)" fill="rgba(250,244,29,0.15)" opacity="0.5"/>
    <path id="패스_1044" data-name="패스 1044" d="M1.418,124.939a1.417,1.417,0,0,1-1.294-2C33.911,47.54,109.116,0,191.715,0c.783,0,.783.548,0,.548-81.483,0-155.671,49.17-189,123.552a1.419,1.419,0,0,1-1.3.838" transform="translate(16.708 1.18)" fill="rgba(255,253,180,0.25)" style="mix-blend-mode: overlay;isolation: isolate"/>
    <path id="패스_1048" data-name="패스 1048" d="M396.905,167.431C377.308,71.659,289.626,2.837,191.715,2.837a207.391,207.391,0,0,0-189,122.442A1.418,1.418,0,0,1,.125,124.12,210.233,210.233,0,0,1,191.715,0c99.254,0,185.711,70.466,205.576,167.552.157.766-.25.55-.386-.121" transform="translate(16.708 0)" fill="#d69624" opacity="0.1"/>
    <path id="패스_1049" data-name="패스 1049" d="M1.418,124.939a1.417,1.417,0,0,1-1.294-2C33.911,47.54,109.116,0,191.715,0c.783,0,.783.548,0,.548-81.483,0-155.671,49.17-189,123.552a1.419,1.419,0,0,1-1.3.838" transform="translate(16.708 1.18)" fill="rgba(255,254,221,0.75)" opacity="0.25" style="mix-blend-mode: overlay;isolation: isolate"/>
    <g data-type="innerShadowGroup">
      <g transform="matrix(1, 0, 0, 1, 0, -3)" filter="url(#타원_100)" style="mix-blend-mode: overlay;isolation: isolate">
        <ellipse id="타원_100-3" data-name="타원 100" cx="17.965" cy="2.837" rx="17.965" ry="2.837" transform="translate(38.12 96.5) rotate(117)" fill="#fff8c1" opacity="0.75"/>
      </g>
      <g transform="matrix(1, 0, 0, 1, 0, -3)" filter="url(#타원_100-2)" style="mix-blend-mode: overlay;isolation: isolate">
        <ellipse id="타원_100-4" data-name="타원 100" cx="17.965" cy="2.837" rx="17.965" ry="2.837" transform="translate(38.12 96.5) rotate(117)" fill="#fff" opacity="0.75"/>
      </g>
    </g>
    <g transform="matrix(1, 0, 0, 1, 0, -3)" filter="url(#타원_101)" style="mix-blend-mode: overlay;isolation: isolate">
      <ellipse id="타원_101-2" data-name="타원 101" cx="13.238" cy="1.891" rx="13.238" ry="1.891" transform="translate(34.41 102.45) rotate(119)" fill="#fffdeb" opacity="0.75"/>
    </g>
  </g>
</svg>
