<svg xmlns="http://www.w3.org/2000/svg" width="24" height="24.001" viewBox="0 0 24 24.001">
    <defs>
        <linearGradient id="eybv6p3lia" x2="1" y2="1" gradientUnits="objectBoundingBox">
            <stop offset="0" stop-color="#be2eff"/>
            <stop offset="1" stop-color="#2ffeff"/>
        </linearGradient>
    </defs>
    <g transform="translate(.4 1)">
        <circle cx="12" cy="12" r="12" transform="translate(-.4 -1)" style="fill:none"/>
        <path data-name="제외 1" d="M12 24A12 12 0 0 1 7.329.943a12 12 0 0 1 9.342 22.114A11.934 11.934 0 0 1 12 24zm0-22.957a10.919 10.919 0 1 0 4.265.86A10.9 10.9 0 0 0 12 1.043z" transform="translate(-.4 -1)" style="fill:url(#eybv6p3lia)"/>
        <path data-name="패스 231" d="M53.2 15.923 51.658 18.4h1.511l1.326-2.546-2.8-4.468H46.52l-.594 1.029h5.214z" transform="translate(-38.76 -7.108)" style="fill:#5ab2ff"/>
        <path data-name="패스 232" d="m26.059 58.359 2.975.035-.6-1.143-2.871.012-2.636 4.517 2.673 4.628h1.253l-2.717-4.464z" transform="translate(-17.839 -48.826)" style="fill:#5ab2ff"/>
        <path data-name="패스 233" d="M102.537 19.419h-3.018l.582 1.112h2.871l2.653-4.512-2.675-4.633h-1.3l2.767 4.422z" transform="translate(-87.511 -7.108)" style="fill:#5ab2ff"/>
        <path data-name="패스 234" d="m17.282 35.106 1.342 2.537.711-1.141-1.456-2.475h-5.22L10 38.633l.582 1.008 2.632-4.518z" transform="translate(-6.08 -27.702)" style="fill:#5ab2ff"/>
        <path data-name="패스 235" d="m50.542 83.34 1.537-2.469-1.46-.017-1.357 2.529L52 87.88h5.237l.6-1.033H52.6z" transform="translate(-41.794 -70.298)" style="fill:#5ab2ff"/>
        <path data-name="패스 236" d="m85.342 73.863-2.655 4.517h-4.068l-1.326-2.532L76.579 77l1.456 2.475h5.232l2.656-4.6z" transform="translate(-66.643 -63.938)" style="fill:#5ab2ff"/>
    </g>
</svg>
