<svg xmlns="http://www.w3.org/2000/svg" width="15.36" height="13.302" viewBox="0 0 15.36 13.302">
    <path data-name="패스 231" d="M53.2 15.923 51.658 18.4h1.511l1.326-2.546-2.8-4.468H46.52l-.594 1.029h5.214z" transform="translate(-42.68 -11.388)" style="fill:#2a72e5"/>
    <path data-name="패스 232" d="m26.059 58.359 2.975.035-.6-1.144-2.871.012-2.636 4.518 2.673 4.628h1.253l-2.717-4.464z" transform="translate(-21.759 -53.106)" style="fill:#2a72e5"/>
    <path data-name="패스 233" d="M102.537 19.419h-3.018l.582 1.112h2.871l2.653-4.512-2.675-4.633h-1.3l2.767 4.422z" transform="translate(-91.431 -11.388)" style="fill:#2a72e5"/>
    <path data-name="패스 234" d="m17.282 35.106 1.342 2.537.711-1.141-1.456-2.475h-5.22L10 38.633l.582 1.008 2.632-4.518z" transform="translate(-10 -31.982)" style="fill:#2a72e5"/>
    <path data-name="패스 235" d="m50.542 83.341 1.537-2.469-1.46-.017-1.357 2.529L52 87.88h5.237l.6-1.033H52.6z" transform="translate(-45.714 -74.578)" style="fill:#2a72e5"/>
    <path data-name="패스 236" d="m85.342 73.863-2.655 4.517h-4.068l-1.326-2.532L76.579 77l1.456 2.475h5.232l2.656-4.6z" transform="translate(-70.563 -68.218)" style="fill:#2a72e5"/>
</svg>
