<svg xmlns="http://www.w3.org/2000/svg" width="35" height="30" viewBox="0 0 35 30">
    <path style="fill:none" d="M0 0h35v30H0z"/>
    <g data-name="TOS_bi">
        <path data-name="패스 225" d="m189.5 122.224-3.484 5.594h3.408l2.99-5.742L186.108 112h-11.682l-1.34 2.32h11.762z" transform="translate(-165.764 -111.996)" style="fill:#fff"/>
        <path data-name="패스 226" d="m168.647 137.438 6.711.078-1.364-2.579-6.477.027-5.937 10.19 6.028 10.438h2.827l-6.128-10.068z" transform="translate(-158.947 -125.592)" style="fill:#fff"/>
        <path data-name="패스 227" d="M206.7 130.107h-6.807l1.314 2.509h6.477l5.984-10.176-6.031-10.44H204.7l6.242 9.973z" transform="translate(-181.65 -111.996)" style="fill:#fff"/>
        <path data-name="패스 228" d="m171.542 125.754 3.026 5.722 1.6-2.574-3.284-5.581h-11.771l-6 10.387 1.313 2.274 5.936-10.189z" transform="translate(-155.115 -118.707)" style="fill:#fff"/>
        <path data-name="패스 229" d="m177.642 152.351 3.468-5.568-3.293-.038-3.062 5.7 6.172 10.14h11.813l1.346-2.33h-11.792z" transform="translate(-166.753 -132.59)" style="fill:#fff"/>
        <path data-name="패스 230" d="m208.189 143.248-5.99 10.186h-9.177l-2.99-5.71-1.611 2.587 3.283 5.581h11.8l5.992-10.377z" transform="translate(-174.85 -130.517)" style="fill:#fff"/>
    </g>
</svg>
